<svg preserveAspectRatio="xMidYMid meet" overflow="visible" style="display: block;" viewBox="0 0 182.001 64" fill="none" xmlns="http://www.w3.org/2000/svg">
<g id="Vector">
<path d="M4.05088 32.4087C5.06119 31.8591 2.13493 30.7592 0.907903 28.0581C-0.319122 25.3564 -0.168285 21.404 0.568053 21.404C1.30439 21.404 2.81463 24.3901 4.4757 24.3901C6.13677 24.3901 2.86141 20.7505 2.86141 17.3947C2.86141 14.0389 3.75782 7.07261 5.41027 7.07261C7.06273 7.07261 5.75936 11.6791 7.44936 11.6791C9.13937 11.6791 7.61005 8.31403 9.40349 5.19564C11.197 2.07724 14.7463 -0.482273 16.2848 0.0772328C17.8234 0.63674 17.9084 4.5607 17.2379 7.29023C16.5674 10.0198 12.5564 13.8875 13.2736 14.5317C13.9909 15.1759 16.9313 11.3898 17.8135 12.2757C20.0084 14.4797 12.0509 25.4269 12.9713 26.3512C13.8917 27.2754 17.6529 20.4841 19.088 21.0621C20.5231 21.6402 20.0693 27.8393 19.088 31.2136C18.1066 34.588 16.9356 38.4649 15.2653 38.4649C13.595 38.4649 10.4422 33.7917 9.8283 30.2757C9.21448 26.7592 8.82784 22.8915 9.65838 18.6739C11.2727 10.4748 13.3493 6.68374 12.8864 6.47477C12.424 6.26643 9.23357 13.4318 8.55387 18.3326C8.02748 22.1286 8.21403 28.2949 8.63884 30.4464C9.06365 32.5979 9.69471 36.554 15.2653 41.9629C18.4083 45.0152 35.3459 47.0053 39.7313 45.631C46.5369 43.498 41.2809 36.1509 40.6843 25.83C40.1937 17.3372 44.5698 9.95484 46.1872 9.97215C47.0651 9.98143 46.9518 13.8485 47.5466 16.6263C48.1413 19.4034 49.7839 21.2043 51.0294 21.2328C52.2755 21.2612 52.3506 17.9814 53.1534 15.2612C53.9563 12.5409 55.674 10.1335 56.5513 10.5694C57.4293 11.0052 56.6172 18.209 59.2603 21.6216C62.9937 26.4414 64.3574 26.5502 66.4057 26.6924C68.454 26.8346 72.2865 24.541 72.6923 25.9246C73.098 27.3082 71.6819 33.0714 62.7529 37.4411C53.8233 41.8109 54.4279 43.6118 54.4279 45.4597C54.4279 54.2276 67.086 57.3744 67.086 60.3883C67.086 63.4022 52.6535 55.5166 50.7751 57.4022C48.8967 59.2885 55.6598 61.7954 53.7482 63.7151C51.8365 65.6347 41.8874 57.2551 32.85 56.4637C24.3679 55.7212 21.43 54.9503 21.2514 56.4446C21.0729 57.9389 32.2552 60.1324 30.641 61.7528C29.0267 63.3738 21.7304 63.2502 16.2842 61.4968C10.838 59.7435 9.08212 56.426 8.55326 53.8189C8.0244 51.2124 10.4409 46.7197 11.6113 44.9472C12.7817 43.1747 11.5725 40.5564 10.082 39.4022C8.51508 38.1892 0.652399 36.4445 0.652399 32.4921C0.652399 30.5855 3.04057 32.9564 4.05027 32.4068L4.05088 32.4087ZM49.4299 29.8479C49.9157 30.3357 53.4871 30.2152 54.4223 29.2761C55.3575 28.3369 55.3575 26.8148 54.4223 25.8757C53.4871 24.9366 52.2429 25.5926 51.3077 26.5317C50.3725 27.4708 49.0408 29.4572 49.4299 29.8479Z" fill="var(--fill-0, #0E1A44)"/>
<path d="M88.0254 20.8967H90.0379V18.5577C90.0379 16.0497 91.4835 15.1479 93.9212 15.1479C94.4031 15.1479 94.7716 15.1761 95.0834 15.2043V17.1488C94.6866 17.1206 94.5732 17.1206 94.3464 17.1206C92.8725 17.1206 92.3339 17.4869 92.3339 18.6705V20.8967H95.0551V22.7565H92.3339V35.4656H90.0379V22.7565H88.0254V20.8967Z" fill="var(--fill-0, #0E1A44)"/>
<path d="M97.4961 28.1952C97.4961 23.9682 100.217 20.5303 104.582 20.5303C108.947 20.5303 111.64 23.9682 111.64 28.1952C111.64 32.4222 108.976 35.8601 104.582 35.8601C100.189 35.8601 97.4961 32.4222 97.4961 28.1952ZM109.288 28.1952C109.288 24.9827 107.7 22.4183 104.582 22.4183C101.464 22.4183 99.8487 24.9827 99.8487 28.1952C99.8487 31.4077 101.464 33.9439 104.582 33.9439C107.7 33.9439 109.288 31.4077 109.288 28.1952Z" fill="var(--fill-0, #0E1A44)"/>
<path d="M118.532 27.8288L113.656 20.8965H116.321L119.807 26.1943H119.864L123.492 20.8965H126.015L121.196 27.5751L126.922 35.4655H124.229L119.892 29.2096H119.835L115.584 35.4655H113.004L118.532 27.8288Z" fill="var(--fill-0, #0E1A44)"/>
<path d="M69.7124 56.3107C69.7124 52.9573 72.2352 51.351 75.0131 49.9702C73.9643 48.4485 73.5107 47.2368 73.5107 45.7714C73.5107 43.2071 75.4099 41.1499 78.2161 41.1499C80.3704 41.1499 82.2979 42.6153 82.2979 45.0951C82.2979 47.744 80.1153 49.2657 77.8476 50.5057L81.1357 55.8598C81.7593 54.789 82.2412 53.4927 82.4396 51.7737H84.3955C84.112 54.2254 83.29 56.0571 82.1845 57.5788L84.3955 61.1013H81.7593L80.6255 59.326C79.2649 60.6222 77.4508 61.4958 75.2965 61.4958C72.4903 61.4958 69.7124 59.8895 69.7124 56.3107ZM75.4383 59.5232C77.139 59.5232 78.4429 58.8469 79.6617 57.6633L75.9201 51.4919C74.0777 52.3937 72.0084 53.6618 72.0084 56.2262C72.0084 58.2551 73.3407 59.5232 75.4383 59.5232ZM75.7501 45.6305C75.7501 46.7296 76.0052 47.5749 76.9973 49.0403C78.4712 48.1667 80.1153 47.1241 80.1153 45.1797C80.1153 43.9679 79.3783 43.0098 78.0744 43.0098C76.6571 43.0098 75.7501 44.0806 75.7501 45.6305Z" fill="var(--fill-0, #0E1A44)"/>
<path d="M88.0278 46.5324H90.0403V44.1935C90.0403 41.6855 91.4859 40.7837 93.9236 40.7837C94.4055 40.7837 94.774 40.8119 95.0858 40.8401V42.7845C94.689 42.7563 94.5756 42.7563 94.3488 42.7563C92.8749 42.7563 92.3363 43.1226 92.3363 44.3062V46.5324H95.0575V48.3923H92.3363V61.1014H90.0403V48.3923H88.0278V46.5324Z" fill="var(--fill-0, #0E1A44)"/>
<path d="M97.4985 53.8309C97.4985 49.6039 100.276 46.166 104.443 46.166C108.837 46.166 111.189 49.5475 111.189 54.3663H99.8511C100.021 57.3252 101.637 59.5796 104.585 59.5796C106.711 59.5796 108.128 58.5651 108.638 56.5925H110.878C110.197 59.7205 107.901 61.4958 104.585 61.4958C100.106 61.4958 97.4985 58.0579 97.4985 53.8309ZM99.9078 52.6473H108.723C108.582 49.7448 107.079 47.9695 104.443 47.9695C101.807 47.9695 100.248 49.9984 99.9078 52.6473Z" fill="var(--fill-0, #0E1A44)"/>
<path d="M123.863 59.0723H123.835C122.956 60.1995 121.454 61.3831 118.959 61.3831C116.182 61.3831 113.999 60.0868 113.999 57.3252C113.999 53.8872 116.72 53.1827 120.377 52.6191C122.446 52.3092 123.892 52.1119 123.892 50.5338C123.892 48.9558 122.701 47.9695 120.603 47.9695C118.222 47.9695 117.032 48.9839 116.947 51.182H114.736C114.821 48.364 116.692 46.2505 120.575 46.2505C123.693 46.2505 125.989 47.4059 125.989 50.872V57.8042C125.989 58.9878 126.273 59.6359 127.548 59.3541H127.633V61.0167C127.35 61.1295 126.981 61.2422 126.386 61.2422C124.884 61.2422 124.09 60.5659 123.863 59.0723ZM123.92 55.7189V53.2391C123.155 53.7182 121.822 54.0845 120.575 54.3099C118.279 54.7326 116.437 55.1272 116.437 57.2688C116.437 59.2132 117.967 59.6359 119.47 59.6359C122.531 59.6359 123.92 57.4097 123.92 55.7189Z" fill="var(--fill-0, #0E1A44)"/>
<path d="M129.564 46.5323H131.69V41.939H133.986V46.5323H136.82V48.3922H133.986V57.8606C133.986 58.8751 134.524 59.2132 135.46 59.2132C135.913 59.2132 136.424 59.1005 136.679 59.016H136.764V60.9886C136.225 61.1013 135.602 61.1858 134.921 61.1858C133.05 61.1858 131.69 60.425 131.69 58.3678V48.3922H129.564V46.5323Z" fill="var(--fill-0, #0E1A44)"/>
<path d="M142.946 48.4484H143.003C144.052 47.0676 145.526 46.194 147.652 46.194C150.713 46.194 152.584 47.8566 152.584 50.8719V61.1012H150.288V51.0692C150.288 49.1811 149.041 48.1103 146.971 48.1103C144.647 48.1103 142.946 49.7447 142.946 52.14V61.1012H140.65V40.9526H142.946V48.4484Z" fill="var(--fill-0, #0E1A44)"/>
<path d="M156.244 53.8309C156.244 49.6039 159.022 46.166 163.188 46.166C167.582 46.166 169.935 49.5475 169.935 54.3663H158.596C158.766 57.3252 160.382 59.5796 163.33 59.5796C165.456 59.5796 166.873 58.5651 167.384 56.5925H169.623C168.943 59.7205 166.647 61.4958 163.33 61.4958C158.852 61.4958 156.244 58.0579 156.244 53.8309ZM158.653 52.6473H167.469C167.327 49.7448 165.825 47.9695 163.188 47.9695C160.552 47.9695 158.993 49.9984 158.653 52.6473Z" fill="var(--fill-0, #0E1A44)"/>
<path d="M175.919 48.9559H175.976C176.854 47.5469 178.385 46.3633 180.341 46.3633C180.766 46.3633 180.993 46.4197 181.276 46.5324V48.7304H181.191C180.851 48.6177 180.624 48.5895 180.171 48.5895C177.903 48.5895 175.919 50.2803 175.919 53.0138V61.1014H173.623V46.5324H175.919V48.9559Z" fill="var(--fill-0, #0E1A44)"/>
<path fill-rule="evenodd" clip-rule="evenodd" d="M91.521 16.4753C91.0768 16.8347 90.7621 17.4453 90.7621 18.5578V21.6209H88.7496V22.0324H90.7621V34.7415H91.6092V22.0324H94.3304V21.6209H91.6092V18.6705C91.6092 17.9856 91.7652 17.3136 92.352 16.8728C92.8763 16.479 93.5961 16.3964 94.3462 16.3964C94.3504 16.3964 94.3546 16.3964 94.3588 16.3964V15.8808C94.2242 15.8754 94.0792 15.8722 93.921 15.8722C92.7681 15.8722 91.9974 16.0898 91.521 16.4753ZM90.6095 15.3495C91.4653 14.6571 92.6363 14.4238 93.921 14.4238C94.4334 14.4238 94.8258 14.454 95.1484 14.4831L95.8077 14.5427V17.9262L95.0319 17.8711C94.6605 17.8448 94.5614 17.8448 94.3566 17.8448H94.3462C93.6224 17.8448 93.3359 17.9454 93.2224 18.0307C93.1715 18.0689 93.0581 18.1719 93.0581 18.6705V20.1725H95.7793V23.4808H93.0581V36.1899H89.3133V23.4808H87.3007V20.1725H89.3133V18.5578C89.3133 17.1623 89.7214 16.068 90.6095 15.3495ZM104.582 21.2546C100.699 21.2546 98.2203 24.281 98.2203 28.1953C98.2203 30.1583 98.8452 31.8968 99.9352 33.1343C101.017 34.3624 102.589 35.136 104.582 35.136C106.575 35.136 108.139 34.3628 109.214 33.1359C110.297 31.899 110.916 30.1603 110.916 28.1953C110.916 26.2322 110.291 24.4933 109.204 23.2555C108.125 22.0271 106.56 21.2546 104.582 21.2546ZM96.7714 28.1953C96.7714 23.6556 99.7349 19.8062 104.582 19.8062C106.97 19.8062 108.934 20.7526 110.293 22.2999C111.643 23.8378 112.365 25.9314 112.365 28.1953C112.365 30.4573 111.652 32.551 110.304 34.0899C108.948 35.6387 106.983 36.5844 104.582 36.5844C102.182 36.5844 100.211 35.6391 98.8477 34.0914C97.4929 32.5532 96.7714 30.4592 96.7714 28.1953ZM112.261 20.1725H116.711L119.847 24.9373L123.11 20.1725H127.431L122.09 27.5741L128.342 36.1899H123.85L119.869 30.4484L115.967 36.1899H111.586L117.642 27.8229L112.261 20.1725ZM115.051 21.6209L119.421 27.835L114.423 34.7415H115.2L119.452 28.4856H120.272L124.608 34.7415H125.501L120.302 27.5766L124.599 21.6209H123.874L120.246 26.9187H119.417L115.93 21.6209H115.051ZM100.47 23.6636C101.402 22.439 102.8 21.6942 104.582 21.6942C106.366 21.6942 107.757 22.4397 108.683 23.6661C109.59 24.8686 110.012 26.4808 110.012 28.1953C110.012 29.9099 109.59 31.5161 108.681 32.7123C107.755 33.9322 106.363 34.6682 104.582 34.6682C102.802 34.6682 101.405 33.9329 100.471 32.7147C99.5548 31.5192 99.1241 29.9126 99.1241 28.1953C99.1241 26.4781 99.5547 24.8655 100.47 23.6636ZM101.623 24.5407C100.95 25.4241 100.573 26.7 100.573 28.1953C100.573 29.6905 100.95 30.9583 101.621 31.8339C102.275 32.687 103.244 33.2198 104.582 33.2198C105.92 33.2198 106.881 32.6877 107.527 31.8364C108.192 30.9614 108.563 29.6932 108.563 28.1953C108.563 26.6973 108.192 25.421 107.526 24.5382C106.878 23.6793 105.917 23.1426 104.582 23.1426C103.247 23.1426 102.278 23.68 101.623 24.5407ZM91.5237 42.1109C91.0795 42.4703 90.7648 43.0809 90.7648 44.1934V47.2565H88.7523V47.668H90.7648V60.3771H91.6119V47.668H94.3331V47.2565H91.6119V44.3061C91.6119 43.6212 91.7679 42.9491 92.3547 42.5083C92.879 42.1145 93.5987 42.032 94.3489 42.032C94.3531 42.032 94.3573 42.032 94.3615 42.032V41.5163C94.2269 41.511 94.0819 41.5078 93.9237 41.5078C92.7708 41.5078 92.0001 41.7254 91.5237 42.1109ZM90.6122 40.9851C91.4679 40.2927 92.639 40.0594 93.9237 40.0594C94.4361 40.0594 94.8285 40.0896 95.1511 40.1187L95.8104 40.1783V43.5618L95.0346 43.5067C94.6632 43.4804 94.5641 43.4804 94.3593 43.4804H94.3489C93.6251 43.4804 93.3386 43.581 93.2251 43.6663C93.1742 43.7045 93.0608 43.8075 93.0608 44.3061V45.8081H95.782V49.1163H93.0608V61.8255H89.3159V49.1163H87.3034V45.8081H89.3159V44.1934C89.3159 42.7978 89.7241 41.7036 90.6122 40.9851ZM139.926 40.2285H143.671V46.744C144.712 45.9416 146.019 45.4699 147.652 45.4699C149.308 45.4699 150.739 45.9209 151.76 46.8727C152.789 47.8314 153.308 49.2108 153.308 50.872V61.8255H149.563V51.0693C149.563 50.2927 149.313 49.7663 148.926 49.4246C148.526 49.0716 147.888 48.8346 146.971 48.8346C145.983 48.8346 145.165 49.1797 144.597 49.7417C144.03 50.3026 143.671 51.1194 143.671 52.1401V61.8255H139.926V40.2285ZM141.375 41.6769V60.3771H142.222V52.1401C142.222 50.997 142.562 49.976 143.173 49.1727H142.222V41.6769H141.375ZM144.173 48.219C144.957 47.6785 145.921 47.3862 146.971 47.3862C148.124 47.3862 149.144 47.6845 149.885 48.339C150.639 49.0047 151.012 49.9577 151.012 51.0693V60.3771H151.859V50.872C151.859 49.5179 151.444 48.5584 150.772 47.932C150.092 47.2987 149.056 46.9183 147.652 46.9183C146.141 46.9183 145.029 47.4039 144.173 48.219ZM78.2159 41.8741C75.8176 41.8741 74.235 43.5991 74.235 45.7714C74.235 47.0477 74.6162 48.1182 75.6094 49.5594L76.0833 50.2469L75.3354 50.6187C72.5385 52.009 70.4367 53.4378 70.4367 56.3107C70.4367 57.8916 71.0401 58.9778 71.9088 59.6833C72.7979 60.4054 74.0212 60.7716 75.2963 60.7716C77.242 60.7716 78.8824 59.986 80.1255 58.8017L80.7624 58.1949L82.1561 60.3771H83.0855L81.3105 57.5492L81.5981 57.1533C82.5103 55.8976 83.2186 54.4183 83.5581 52.4979H83.0699C82.8227 54.0075 82.3543 55.2064 81.7616 56.2242L81.152 57.2709L76.8316 50.2357L77.4998 49.8703C79.8008 48.6121 81.5733 47.2746 81.5733 45.0951C81.5733 43.0846 80.0432 41.8741 78.2159 41.8741ZM72.7861 45.7714C72.7861 42.815 75.0018 40.4258 78.2159 40.4258C80.6971 40.4258 83.0221 42.1459 83.0221 45.0951C83.0221 47.9084 80.9119 49.572 78.8584 50.7677L81.0652 54.3611C81.368 53.6098 81.5989 52.738 81.7198 51.6907L81.7938 51.0496H85.2083L85.1149 51.8569C84.8409 54.227 84.0843 56.0636 83.0529 57.6001L85.7051 61.8255H81.3621L80.4654 60.4213C79.0752 61.512 77.3238 62.22 75.2963 62.22C73.7652 62.22 72.1964 61.783 70.9951 60.8074C69.7733 59.815 68.9878 58.3087 68.9878 56.3107C68.9878 52.8106 71.4412 51.0193 73.9676 49.6904C73.169 48.3755 72.7861 47.1832 72.7861 45.7714ZM130.965 41.2148H134.71V45.8081H137.545V49.1163H134.71V57.8606C134.71 58.2448 134.809 58.3385 134.838 58.3629C134.895 58.4107 135.054 58.489 135.46 58.489C135.82 58.489 136.252 58.3944 136.451 58.3286L136.562 58.2918H137.488V61.5768L136.912 61.6974C136.335 61.8181 135.661 61.91 134.921 61.91C133.906 61.91 132.912 61.7064 132.159 61.1194C131.373 60.5069 130.965 59.5698 130.965 58.3678V49.1163H128.84V45.8081H130.965V41.2148ZM132.414 42.6632V47.2565H130.288V47.668H132.414V58.3678C132.414 59.223 132.687 59.6949 133.049 59.9771C133.444 60.2848 134.066 60.4616 134.921 60.4616C135.315 60.4616 135.69 60.4305 136.039 60.381V59.8957C135.85 59.9212 135.653 59.9374 135.46 59.9374C134.93 59.9374 134.352 59.8467 133.906 59.4717C133.432 59.0735 133.261 58.4909 133.261 57.8606V47.668H136.096V47.2565H133.261V42.6632H132.414ZM75.8354 43.2621C76.3857 42.6334 77.1704 42.2856 78.0742 42.2856C78.9165 42.2856 79.6299 42.6017 80.1254 43.1596C80.6113 43.7067 80.8395 44.431 80.8395 45.1797C80.8395 46.3854 80.3198 47.3043 79.6286 48.016C78.957 48.7075 78.0964 49.2306 77.3665 49.6632L76.7796 50.0111L76.3971 49.4462C75.8834 48.6874 75.5347 48.0522 75.3183 47.4391C75.0978 46.8145 75.0254 46.2443 75.0254 45.6305C75.0254 44.7177 75.2933 43.8813 75.8354 43.2621ZM76.9257 44.2159C76.6599 44.5195 76.4743 44.9935 76.4743 45.6305C76.4743 46.1158 76.5295 46.5177 76.6846 46.957C76.7968 47.2748 76.9666 47.6271 77.2247 48.055C77.74 47.7312 78.212 47.3954 78.589 47.0071C79.0883 46.493 79.3906 45.9183 79.3906 45.1797C79.3906 44.7166 79.2504 44.3559 79.0418 44.1211C78.8428 43.897 78.5357 43.734 78.0742 43.734C77.5607 43.734 77.1833 43.9216 76.9257 44.2159ZM104.443 46.8901C100.764 46.8901 98.223 49.9103 98.223 53.8309C98.223 55.7997 98.83 57.5376 99.9081 58.7723C100.976 59.9959 102.546 60.7716 104.585 60.7716C106.113 60.7716 107.351 60.3641 108.275 59.6455C108.996 59.0848 109.559 58.3088 109.919 57.3167H109.172C108.854 58.1867 108.346 58.8978 107.645 59.4102C106.809 60.0221 105.762 60.3038 104.585 60.3038C102.907 60.3038 101.561 59.6531 100.624 58.5515C99.7028 57.4676 99.2195 55.9995 99.128 54.4078L99.084 53.6421H110.446C110.339 51.6698 109.794 50.052 108.894 48.9064C107.904 47.6457 106.434 46.8901 104.443 46.8901ZM96.7741 53.8309C96.7741 49.2975 99.7888 45.4418 104.443 45.4418C106.846 45.4418 108.749 46.377 110.034 48.0118C111.301 49.6244 111.914 51.8495 111.914 54.3663V55.0905H100.657C100.821 56.1185 101.191 56.9817 101.728 57.6135C102.379 58.3789 103.315 58.8554 104.585 58.8554C105.534 58.8554 106.259 58.6298 106.79 58.2413C107.316 57.8562 107.716 57.2644 107.937 56.4112L108.077 55.8683H111.777L111.586 56.7464C111.215 58.4524 110.39 59.8358 109.165 60.7888C107.942 61.7398 106.374 62.22 104.585 62.22C102.145 62.22 100.172 61.2768 98.8165 59.7247C97.471 58.1836 96.7741 56.089 96.7741 53.8309ZM163.188 46.8901C159.509 46.8901 156.968 49.9103 156.968 53.8309C156.968 55.7997 157.575 57.5376 158.653 58.7723C159.722 59.9959 161.291 60.7716 163.33 60.7716C164.858 60.7716 166.096 60.3641 167.02 59.6455C167.741 59.0848 168.305 58.3088 168.664 57.3167H167.917C167.599 58.1867 167.091 58.8978 166.391 59.4102C165.554 60.0221 164.507 60.3038 163.33 60.3038C161.652 60.3038 160.306 59.6531 159.37 58.5515C158.448 57.4676 157.965 55.9995 157.873 54.4078L157.829 53.6421H169.191C169.085 51.6698 168.539 50.052 167.639 48.9064C166.649 47.6457 165.179 46.8901 163.188 46.8901ZM155.519 53.8309C155.519 49.2975 158.534 45.4418 163.188 45.4418C165.591 45.4418 167.495 46.377 168.779 48.0118C170.046 49.6244 170.659 51.8495 170.659 54.3663V55.0905H159.402C159.566 56.1185 159.936 56.9817 160.474 57.6135C161.124 58.3789 162.06 58.8554 163.33 58.8554C164.279 58.8554 165.004 58.6298 165.535 58.2413C166.061 57.8562 166.461 57.2644 166.682 56.4112L166.823 55.8683H170.522L170.331 56.7464C169.96 58.4524 169.135 59.8358 167.91 60.7888C166.687 61.7398 165.119 62.22 163.33 62.22C160.891 62.22 158.917 61.2768 157.562 59.7247C156.216 58.1836 155.519 56.089 155.519 53.8309ZM115.533 50.4578C115.69 49.5389 116.09 48.7693 116.72 48.194C117.517 47.4662 118.763 46.9747 120.575 46.9747C122.066 46.9747 123.235 47.2547 124.017 47.8409C124.76 48.3974 125.265 49.314 125.265 50.872V57.8042C125.265 58.3908 125.32 59.0986 125.735 59.5938C126.047 59.9662 126.461 60.1194 126.909 60.1403V60.4763C126.765 60.5017 126.595 60.518 126.386 60.518C125.737 60.518 125.356 60.3721 125.118 60.1679C124.88 59.9637 124.677 59.6086 124.579 58.9637L124.486 58.3481H123.753C124.351 57.5309 124.644 56.5786 124.644 55.7189V51.9312L123.535 52.6253C122.896 53.0253 121.684 53.3736 120.446 53.5973L120.444 53.5977C119.328 53.8032 118.164 54.0236 117.291 54.5131C116.835 54.7685 116.429 55.1116 116.141 55.5876C115.852 56.0651 115.712 56.6263 115.712 57.2688C115.712 58.4694 116.207 59.3071 117.012 59.7993C117.754 60.2533 118.676 60.3601 119.47 60.3601C120.446 60.3601 121.281 60.1584 121.977 59.8228C121.229 60.3097 120.248 60.6589 118.959 60.6589C117.671 60.6589 116.601 60.3565 115.872 59.8103C115.171 59.2849 114.723 58.4901 114.723 57.3252C114.723 56.5626 114.874 56.0012 115.114 55.5721C115.353 55.1448 115.706 54.8024 116.187 54.5167C117.185 53.9231 118.64 53.6196 120.486 53.3351C120.532 53.3282 120.578 53.3213 120.624 53.3144C121.567 53.1737 122.511 53.0328 123.213 52.7099C123.603 52.5306 123.968 52.2751 124.231 51.8908C124.498 51.5017 124.616 51.0431 124.616 50.5338C124.616 49.5453 124.234 48.6866 123.484 48.0925C122.756 47.5151 121.755 47.2453 120.603 47.2453C119.326 47.2453 118.23 47.5154 117.438 48.2057C116.791 48.7703 116.43 49.5423 116.288 50.4578H115.533ZM115.742 47.125C116.873 46.0916 118.504 45.5263 120.575 45.5263C122.202 45.5263 123.741 45.824 124.886 46.682C126.071 47.5697 126.714 48.9638 126.714 50.872V57.8042C126.714 58.0771 126.73 58.2838 126.763 58.4374C126.795 58.5921 126.834 58.6494 126.846 58.6636C126.85 58.6686 126.853 58.6707 126.853 58.6707C126.856 58.6721 126.87 58.6797 126.903 58.6862C126.978 58.7004 127.128 58.7054 127.392 58.647L127.469 58.6299H128.358V61.508L127.901 61.6896C127.549 61.8298 127.089 61.9664 126.386 61.9664C125.532 61.9664 124.765 61.7741 124.174 61.2668C123.906 61.0367 123.697 60.7609 123.535 60.449C122.513 61.3572 121.038 62.1073 118.959 62.1073C117.47 62.1073 116.06 61.7615 115.003 60.9691C113.918 60.156 113.275 58.9218 113.275 57.3252C113.275 56.3688 113.464 55.5529 113.849 54.8653C114.234 54.1761 114.789 53.6624 115.446 53.2719C116.723 52.5129 118.456 52.1824 120.266 51.9034L120.269 51.903C121.35 51.7411 122.103 51.626 122.607 51.3942C122.838 51.2881 122.963 51.1791 123.035 51.0729C123.105 50.9715 123.167 50.8136 123.167 50.5338C123.167 49.9443 122.954 49.5209 122.584 49.2273C122.193 48.917 121.549 48.6936 120.603 48.6936C119.5 48.6936 118.811 48.9307 118.39 49.2972C117.984 49.6514 117.709 50.2337 117.671 51.21L117.644 51.9062H113.989L114.012 51.1601C114.059 49.5937 114.608 48.1614 115.742 47.125ZM180.341 47.0874C178.701 47.0874 177.376 48.0795 176.59 49.3389L176.557 49.3916C177.48 48.4152 178.779 47.8652 180.171 47.8652C180.31 47.8652 180.435 47.8678 180.552 47.8746V47.0942C180.49 47.0897 180.421 47.0874 180.341 47.0874ZM176.306 49.6799H175.194V47.2565H174.347V60.3771H175.194V53.0137C175.194 51.6723 175.616 50.5389 176.306 49.6799ZM176.643 47.0626C177.606 46.2237 178.859 45.639 180.341 45.639C180.86 45.639 181.177 45.7137 181.544 45.8594L182.001 46.041V49.4545H181.074L180.963 49.4177C180.718 49.3365 180.573 49.3136 180.171 49.3136C178.29 49.3136 176.643 50.6932 176.643 53.0137V61.8255H172.898V45.8081H176.643V47.0626ZM100.778 48.8281C101.677 47.8394 102.92 47.2453 104.443 47.2453C105.936 47.2453 107.178 47.7546 108.058 48.7368C108.925 49.7038 109.371 51.0516 109.447 52.612L109.484 53.3715H99.0846L99.1894 52.5551C99.3733 51.1226 99.8932 49.8022 100.778 48.8281ZM100.779 51.9231C100.994 51.0657 101.361 50.3409 101.851 49.802C102.476 49.114 103.33 48.6936 104.443 48.6936C105.587 48.6936 106.414 49.072 106.979 49.7031C107.443 50.2208 107.777 50.9598 107.925 51.9231H100.779ZM159.524 48.8281C160.422 47.8394 161.665 47.2453 163.188 47.2453C164.681 47.2453 165.923 47.7546 166.804 48.7368C167.67 49.7038 168.116 51.0516 168.192 52.612L168.229 53.3715H157.83L157.935 52.5551C158.118 51.1226 158.638 49.8022 159.524 48.8281ZM159.525 51.9231H166.67C166.522 50.9598 166.188 50.2208 165.724 49.7031C165.159 49.072 164.332 48.6936 163.188 48.6936C162.075 48.6936 161.221 49.114 160.596 49.802C160.106 50.3409 159.739 51.0657 159.525 51.9231ZM76.1962 50.5504L80.58 57.7811L80.1663 58.1828C78.8476 59.4633 77.3715 60.2474 75.4381 60.2474C74.2435 60.2474 73.1923 59.8841 72.4351 59.1582C71.6745 58.4291 71.2838 57.4038 71.2838 56.2262C71.2838 53.1769 73.7809 51.7325 75.6014 50.8415L76.1962 50.5504ZM75.6492 52.4426C74.0415 53.2999 72.7327 54.3693 72.7327 56.2262C72.7327 57.0774 73.0081 57.7007 73.438 58.1129C73.8713 58.5283 74.535 58.799 75.4381 58.799C76.7214 58.799 77.7477 58.3646 78.7332 57.5293L75.6492 52.4426ZM120.705 55.0225C119.525 55.2396 118.621 55.4277 117.999 55.7764C117.707 55.9402 117.51 56.1237 117.38 56.3372C117.252 56.5492 117.161 56.8405 117.161 57.2688C117.161 58.0127 117.432 58.3585 117.768 58.5637C118.166 58.8072 118.761 58.9117 119.47 58.9117C122.096 58.9117 123.195 57.0451 123.195 55.7189V54.3755C122.421 54.6606 121.522 54.8748 120.705 55.0225Z" fill="var(--fill-0, #0E1A44)"/>
</g>
</svg>
