<svg preserveAspectRatio="none" width="100%" height="100%" overflow="visible" style="display: block;" viewBox="0 0 32 32" fill="none" xmlns="http://www.w3.org/2000/svg">
<g id="Social icon" clip-path="url(#clip0_0_4)">
<path id="Vector" d="M29.6378 -1.83105e-06H2.36222C1.73572 -1.83105e-06 1.13488 0.248875 0.691877 0.691877C0.248875 1.13488 -1.83105e-06 1.73572 -1.83105e-06 2.36222V29.6378C-1.83105e-06 30.2643 0.248875 30.8651 0.691877 31.3081C1.13488 31.7511 1.73572 32 2.36222 32H29.6378C30.2643 32 30.8651 31.7511 31.3081 31.3081C31.7511 30.8651 32 30.2643 32 29.6378V2.36222C32 1.73572 31.7511 1.13488 31.3081 0.691877C30.8651 0.248875 30.2643 -1.83105e-06 29.6378 -1.83105e-06ZM9.53778 27.26H4.72667V11.9778H9.53778V27.26ZM7.12889 9.86C6.58315 9.85693 6.05055 9.69226 5.59831 9.38678C5.14607 9.0813 4.79445 8.64871 4.58783 8.14358C4.38122 7.63846 4.32886 7.08345 4.43737 6.5486C4.54588 6.01375 4.8104 5.52303 5.19754 5.13837C5.58468 4.75371 6.07708 4.49235 6.61262 4.38728C7.14816 4.2822 7.70282 4.33812 8.2066 4.54798C8.71039 4.75783 9.14072 5.11222 9.44329 5.56641C9.74585 6.02061 9.9071 6.55425 9.90667 7.1C9.91181 7.46538 9.84335 7.82805 9.70535 8.1664C9.56735 8.50476 9.36264 8.81187 9.10343 9.06942C8.84421 9.32698 8.5358 9.52971 8.19656 9.66553C7.85733 9.80136 7.49422 9.86749 7.12889 9.86ZM27.2711 27.2733H22.4622V18.9244C22.4622 16.4622 21.4156 15.7022 20.0644 15.7022C18.6378 15.7022 17.2378 16.7778 17.2378 18.9867V27.2733H12.4267V11.9889H17.0533V14.1067H17.1156C17.58 13.1667 19.2067 11.56 21.6889 11.56C24.3733 11.56 27.2733 13.1533 27.2733 17.82L27.2711 27.2733Z" fill="var(--fill-0, #006D50)"/>
</g>
<defs>
<clipPath id="clip0_0_4">
<rect width="32" height="32" fill="white"/>
</clipPath>
</defs>
</svg>
