<svg preserveAspectRatio="none" width="100%" height="100%" overflow="visible" style="display: block;" viewBox="0 0 10 10" fill="none" xmlns="http://www.w3.org/2000/svg">
<path id="Vector" d="M5.58837 0.362534L6.86918 2.91393H9.36687C9.49253 2.90962 9.61645 2.94461 9.7218 3.01415C9.82715 3.08368 9.90884 3.18439 9.95576 3.3026C10.0027 3.42081 10.0126 3.55078 9.98406 3.67488C9.95557 3.79897 9.89007 3.91118 9.79647 3.99625L7.63248 6.28744L8.83137 9.08283C8.88402 9.21069 8.89577 9.35207 8.86497 9.48705C8.83416 9.62204 8.76235 9.74383 8.65964 9.83527C8.55694 9.92672 8.42852 9.98322 8.29246 9.99681C8.15641 10.0104 8.01957 9.98039 7.90123 9.91103L5.00091 8.25971L2.1036 9.91103C1.98525 9.98039 1.84842 10.0104 1.71236 9.99681C1.5763 9.98322 1.44788 9.92672 1.34518 9.83527C1.24247 9.74383 1.17066 9.62204 1.13986 9.48705C1.10905 9.35207 1.1208 9.21069 1.17346 9.08283L2.37235 6.28744L0.205353 3.99625C0.111018 3.91132 0.0449206 3.79889 0.0161291 3.67439C-0.0126624 3.54989 -0.00273828 3.41941 0.0445401 3.30085C0.0918186 3.18229 0.174135 3.08146 0.280199 3.01219C0.386264 2.94291 0.51088 2.90859 0.636954 2.91393H3.13464L4.41446 0.362534C4.47002 0.253323 4.55419 0.161724 4.65772 0.097776C4.76125 0.0338279 4.88016 0 5.00141 0C5.12266 0 5.24157 0.0338279 5.3451 0.097776C5.44864 0.161724 5.5328 0.253323 5.58837 0.362534Z" fill="var(--fill-0, #E8F4FC)"/>
</svg>
