<svg xmlns="http://www.w3.org/2000/svg" viewBox="0 0 960 225" width="960" height="225">
  <g transform="translate(176.81, 45.79)">
      <svg width="620" height="161" viewBox="0 0 623 162.5" fill="none" overflow="visible">
        <path id="Ellipse 3" d="M621.5 0C621.5 88.9178 482.708 161 311.5 161C140.292 161 1.5 88.9178 1.5 0" stroke="#E8F4FC" stroke-width="3"/>
      </svg>
    </g>
  <g transform="translate(167.92, 51.14) rotate(62.37)">
      <rect x="-41.268" y="-14.642" width="82.536" height="29.283" rx="99" fill="#e8f4fc"/>
      <svg x="-17.268" y="-6.642" width="34.536" height="13.283" viewBox="0 0 34.5360 13.2830" overflow="visible">
        <g id="Feel">
<path id="Vector" d="M34.5361 0V13.0909H31.8131V0H34.5361Z" fill="#1C2C65"/>
<path id="Vector_2" d="M25.3497 13.2827C24.3398 13.2827 23.4704 13.0781 22.7417 12.669C22.0173 12.2557 21.4591 11.6719 21.067 10.9176C20.675 10.1591 20.479 9.26207 20.479 8.22656C20.479 7.21662 20.675 6.33026 21.067 5.56747C21.4591 4.80469 22.0109 4.21023 22.7226 3.78409C23.4385 3.35796 24.278 3.14489 25.241 3.14489C25.8888 3.14489 26.4918 3.24929 27.05 3.4581C27.6125 3.66264 28.1025 3.97159 28.5202 4.38494C28.942 4.7983 29.2702 5.31818 29.5045 5.9446C29.7389 6.56676 29.8561 7.29546 29.8561 8.13068V8.87855H21.5656V7.19105H27.2929C27.2929 6.79901 27.2077 6.45171 27.0372 6.14915C26.8667 5.84659 26.6302 5.61009 26.3277 5.43963C26.0294 5.26492 25.6821 5.17756 25.2858 5.17756C24.8724 5.17756 24.506 5.27344 24.1864 5.4652C23.871 5.6527 23.6239 5.90625 23.4449 6.22585C23.2659 6.54119 23.1743 6.89276 23.17 7.28054V8.88494C23.17 9.37074 23.2595 9.79048 23.4385 10.1442C23.6217 10.4979 23.8795 10.7706 24.2119 10.9624C24.5443 11.1541 24.9385 11.25 25.3944 11.25C25.697 11.25 25.974 11.2074 26.2254 11.1222C26.4768 11.0369 26.692 10.9091 26.871 10.7386C27.05 10.5682 27.1864 10.3594 27.2801 10.1122L29.7986 10.2784C29.6707 10.8835 29.4087 11.4119 29.0123 11.8636C28.6203 12.3111 28.1132 12.6605 27.491 12.9119C26.8731 13.1591 26.1594 13.2827 25.3497 13.2827Z" fill="#1C2C65"/>
<path id="Vector_3" d="M14.4119 13.2827C13.4019 13.2827 12.5326 13.0781 11.8039 12.669C11.0795 12.2557 10.5213 11.6719 10.1292 10.9176C9.73717 10.1591 9.54115 9.26207 9.54115 8.22656C9.54115 7.21662 9.73717 6.33026 10.1292 5.56747C10.5213 4.80469 11.0731 4.21023 11.7848 3.78409C12.5007 3.35796 13.3402 3.14489 14.3032 3.14489C14.951 3.14489 15.5539 3.24929 16.1122 3.4581C16.6747 3.66264 17.1647 3.97159 17.5823 4.38494C18.0042 4.7983 18.3323 5.31818 18.5667 5.9446C18.8011 6.56676 18.9183 7.29546 18.9183 8.13068V8.87855H10.6278V7.19105H16.3551C16.3551 6.79901 16.2698 6.45171 16.0994 6.14915C15.9289 5.84659 15.6924 5.61009 15.3899 5.43963C15.0916 5.26492 14.7443 5.17756 14.348 5.17756C13.9346 5.17756 13.5681 5.27344 13.2485 5.4652C12.9332 5.6527 12.686 5.90625 12.5071 6.22585C12.3281 6.54119 12.2365 6.89276 12.2322 7.28054V8.88494C12.2322 9.37074 12.3217 9.79048 12.5007 10.1442C12.6839 10.4979 12.9417 10.7706 13.2741 10.9624C13.6065 11.1541 14.0007 11.25 14.4566 11.25C14.7592 11.25 15.0362 11.2074 15.2876 11.1222C15.539 11.0369 15.7542 10.9091 15.9332 10.7386C16.1122 10.5682 16.2485 10.3594 16.3423 10.1122L18.8608 10.2784C18.7329 10.8835 18.4708 11.4119 18.0745 11.8636C17.6825 12.3111 17.1754 12.6605 16.5532 12.9119C15.9353 13.1591 15.2215 13.2827 14.4119 13.2827Z" fill="#1C2C65"/>
<path id="Vector_4" d="M0 13.0909V0H8.66761V2.28196H2.76776V5.40128H8.09233V7.68324H2.76776V13.0909H0Z" fill="#1C2C65"/>
</g>
      </svg>
    </g>
  <g transform="translate(796.54, 51.65) rotate(-75)">
      <rect x="-41.268" y="-14.642" width="82.536" height="29.283" rx="99" fill="#e8f4fc"/>
      <svg x="-17.268" y="-6.642" width="34.537" height="13.283" viewBox="0 0 34.5370 13.2830" overflow="visible">
        <g id="Feel">
<path id="Vector" d="M34.5362 5.59958e-05V13.091H31.8132V5.59958e-05H34.5362Z" fill="#1C2C65"/>
<path id="Vector_2" d="M25.3498 13.2827C24.3398 13.2827 23.4705 13.0782 22.7418 12.6691C22.0174 12.2557 21.4591 11.6719 21.0671 10.9177C20.6751 10.1591 20.479 9.26213 20.479 8.22662C20.479 7.21668 20.6751 6.33031 21.0671 5.56753C21.4591 4.80475 22.011 4.21028 22.7226 3.78415C23.4385 3.35801 24.278 3.14494 25.2411 3.14494C25.8888 3.14494 26.4918 3.24935 27.0501 3.45815C27.6126 3.6627 28.1026 3.97165 28.5202 4.385C28.9421 4.79835 29.2702 5.31824 29.5046 5.94466C29.739 6.56682 29.8562 7.29551 29.8562 8.13074V8.87861H21.5657V7.19111H27.293C27.293 6.79906 27.2077 6.45176 27.0373 6.14921C26.8668 5.84665 26.6303 5.61014 26.3278 5.43969C26.0295 5.26497 25.6822 5.17761 25.2859 5.17761C24.8725 5.17761 24.506 5.2735 24.1864 5.46526C23.8711 5.65276 23.6239 5.90631 23.4449 6.22591C23.266 6.54125 23.1743 6.89281 23.1701 7.2806V8.885C23.1701 9.3708 23.2596 9.79054 23.4386 10.1442C23.6218 10.4979 23.8796 10.7707 24.212 10.9624C24.5444 11.1542 24.9386 11.2501 25.3945 11.2501C25.6971 11.2501 25.9741 11.2074 26.2255 11.1222C26.4769 11.037 26.6921 10.9091 26.8711 10.7387C27.0501 10.5682 27.1864 10.3594 27.2802 10.1123L29.7986 10.2785C29.6708 10.8836 29.4087 11.412 29.0124 11.8637C28.6204 12.3111 28.1133 12.6606 27.4911 12.912C26.8732 13.1591 26.1594 13.2827 25.3498 13.2827Z" fill="#1C2C65"/>
<path id="Vector_3" d="M14.412 13.2827C13.402 13.2827 12.5327 13.0782 11.804 12.6691C11.0796 12.2557 10.5213 11.6719 10.1293 10.9177C9.73724 10.1591 9.54122 9.26213 9.54122 8.22662C9.54122 7.21668 9.73724 6.33031 10.1293 5.56753C10.5213 4.80475 11.0732 4.21028 11.7848 3.78415C12.5007 3.35801 13.3402 3.14494 14.3033 3.14494C14.951 3.14494 15.554 3.24935 16.1122 3.45815C16.6747 3.6627 17.1648 3.97165 17.5824 4.385C18.0043 4.79835 18.3324 5.31824 18.5668 5.94466C18.8012 6.56682 18.9184 7.29551 18.9184 8.13074V8.87861H10.6279V7.19111H16.3551C16.3551 6.79906 16.2699 6.45176 16.0995 6.14921C15.929 5.84665 15.6925 5.61014 15.3899 5.43969C15.0916 5.26497 14.7443 5.17761 14.348 5.17761C13.9347 5.17761 13.5682 5.2735 13.2486 5.46526C12.9333 5.65276 12.6861 5.90631 12.5071 6.22591C12.3282 6.54125 12.2365 6.89281 12.2323 7.2806V8.885C12.2323 9.3708 12.3218 9.79054 12.5007 10.1442C12.684 10.4979 12.9418 10.7707 13.2742 10.9624C13.6066 11.1542 14.0007 11.2501 14.4567 11.2501C14.7593 11.2501 15.0362 11.2074 15.2877 11.1222C15.5391 11.037 15.7543 10.9091 15.9333 10.7387C16.1122 10.5682 16.2486 10.3594 16.3424 10.1123L18.8608 10.2785C18.733 10.8836 18.4709 11.412 18.0746 11.8637C17.6826 12.3111 17.1755 12.6606 16.5533 12.912C15.9354 13.1591 15.2216 13.2827 14.412 13.2827Z" fill="#1C2C65"/>
<path id="Vector_4" d="M6.93482e-05 13.091V5.59958e-05H8.66768V2.28202H2.76783V5.40133H8.0924V7.68329H2.76783V13.091H6.93482e-05Z" fill="#1C2C65"/>
</g>
      </svg>
    </g>
  <g transform="translate(246.05, 141.77) rotate(32.78)">
      <rect x="-50.982" y="-14.642" width="101.964" height="29.283" rx="99" fill="#e8f4fc"/>
      <svg x="-26.982" y="-6.642" width="53.964" height="13.283" viewBox="0 0 53.9640 13.2830" overflow="visible">
        <g id="Frame">
<path id="Vector" d="M49.4579 13.2827C48.4479 13.2827 47.5786 13.0781 46.8499 12.669C46.1255 12.2557 45.5672 11.6719 45.1752 10.9176C44.7831 10.1591 44.5871 9.26207 44.5871 8.22656C44.5871 7.21662 44.7831 6.33026 45.1752 5.56747C45.5672 4.80469 46.1191 4.21023 46.8307 3.78409C47.5466 3.35796 48.3861 3.14489 49.3492 3.14489C49.9969 3.14489 50.5999 3.24929 51.1581 3.4581C51.7206 3.66264 52.2107 3.97159 52.6283 4.38494C53.0502 4.7983 53.3783 5.31818 53.6127 5.9446C53.8471 6.56676 53.9642 7.29546 53.9642 8.13068V8.87855H45.6738V7.19105H51.401C51.401 6.79901 51.3158 6.45171 51.1454 6.14915C50.9749 5.84659 50.7384 5.61009 50.4358 5.43963C50.1375 5.26492 49.7902 5.17756 49.3939 5.17756C48.9806 5.17756 48.6141 5.27344 48.2945 5.4652C47.9792 5.6527 47.732 5.90625 47.553 6.22585C47.3741 6.54119 47.2824 6.89276 47.2782 7.28054V8.88494C47.2782 9.37074 47.3677 9.79048 47.5466 10.1442C47.7299 10.4979 47.9877 10.7706 48.3201 10.9624C48.6525 11.1541 49.0466 11.25 49.5026 11.25C49.8052 11.25 50.0821 11.2074 50.3336 11.1222C50.585 11.0369 50.8002 10.9091 50.9792 10.7386C51.1581 10.5682 51.2945 10.3594 51.3883 10.1122L53.9067 10.2784C53.7789 10.8835 53.5168 11.4119 53.1205 11.8636C52.7285 12.3111 52.2214 12.6605 51.5992 12.9119C50.9813 13.1591 50.2675 13.2827 49.4579 13.2827Z" fill="#1C2C65"/>
<path id="Vector_2" d="M28.3855 13.0909V3.27273H30.9806V5.00497H31.0957C31.3002 4.42969 31.6411 3.97585 32.1184 3.64347C32.5957 3.31108 33.1667 3.14489 33.8315 3.14489C34.5048 3.14489 35.0779 3.31321 35.5509 3.64986C36.024 3.98225 36.3393 4.43395 36.497 5.00497H36.5992C36.7995 4.44247 37.1617 3.9929 37.6859 3.65625C38.2143 3.31534 38.8386 3.14489 39.5588 3.14489C40.4749 3.14489 41.2186 3.43679 41.7896 4.0206C42.3649 4.60014 42.6525 5.42259 42.6525 6.48793V13.0909H39.9359V7.02486C39.9359 6.4794 39.791 6.07031 39.5012 5.79759C39.2115 5.52486 38.8492 5.3885 38.4146 5.3885C37.9203 5.3885 37.5346 5.54617 37.2576 5.86151C36.9806 6.17259 36.8421 6.58381 36.8421 7.09517V13.0909H34.2022V6.96733C34.2022 6.4858 34.0637 6.10227 33.7867 5.81676C33.514 5.53125 33.1539 5.3885 32.7065 5.3885C32.4039 5.3885 32.1312 5.4652 31.8883 5.61861C31.6497 5.76776 31.46 5.97869 31.3194 6.25142C31.1788 6.51989 31.1085 6.83523 31.1085 7.19744V13.0909H28.3855Z" fill="#1C2C65"/>
<path id="Vector_3" d="M20.5638 13.2763C19.9373 13.2763 19.3791 13.1676 18.889 12.9503C18.399 12.7287 18.0112 12.4027 17.7257 11.9723C17.4444 11.5376 17.3038 10.9965 17.3038 10.3487C17.3038 9.80327 17.404 9.34517 17.6042 8.97443C17.8045 8.60369 18.0773 8.3054 18.4224 8.07955C18.7676 7.85369 19.1596 7.68324 19.5986 7.56818C20.0417 7.45313 20.5062 7.37216 20.992 7.32529C21.5631 7.26563 22.0233 7.21023 22.3727 7.15909C22.7221 7.1037 22.9757 7.02273 23.1334 6.91619C23.291 6.80966 23.3699 6.65199 23.3699 6.44318V6.40483C23.3699 6 23.242 5.68679 22.9864 5.4652C22.7349 5.24361 22.377 5.13281 21.9125 5.13281C21.4224 5.13281 21.0325 5.24148 20.7427 5.45881C20.453 5.67188 20.2612 5.94034 20.1675 6.26421L17.649 6.05966C17.7768 5.46307 18.0283 4.94744 18.4033 4.51279C18.7783 4.07386 19.2619 3.73722 19.8542 3.50284C20.4508 3.26421 21.1412 3.14489 21.9253 3.14489C22.4707 3.14489 22.9927 3.20881 23.4913 3.33665C23.9942 3.46449 24.4395 3.66264 24.8273 3.93111C25.2193 4.19958 25.5283 4.54475 25.7541 4.96662C25.98 5.38423 26.0929 5.88494 26.0929 6.46875V13.0909H23.5105V11.7294H23.4338C23.2761 12.0362 23.0652 12.3068 22.801 12.5412C22.5368 12.7713 22.2193 12.9524 21.8486 13.0845C21.4778 13.2124 21.0496 13.2763 20.5638 13.2763ZM21.3436 11.397C21.7442 11.397 22.0979 11.3182 22.4047 11.1605C22.7115 10.9986 22.9523 10.7813 23.127 10.5085C23.3017 10.2358 23.3891 9.92685 23.3891 9.58168V8.53977C23.3038 8.59517 23.1866 8.64631 23.0375 8.69318C22.8926 8.7358 22.7285 8.77628 22.5453 8.81463C22.3621 8.84872 22.1788 8.88068 21.9956 8.91051C21.8123 8.93608 21.6462 8.95952 21.497 8.98083C21.1774 9.0277 20.8983 9.10227 20.6596 9.20455C20.421 9.30682 20.2356 9.44531 20.1035 9.62003C19.9714 9.79048 19.9054 10.0036 19.9054 10.2592C19.9054 10.63 20.0396 10.9134 20.3081 11.1094C20.5808 11.3011 20.926 11.397 21.3436 11.397Z" fill="#1C2C65"/>
<path id="Vector_4" d="M10.5001 13.0909V3.27273H13.14V4.9858H13.2423C13.4212 4.37642 13.7217 3.91619 14.1435 3.60511C14.5654 3.28977 15.0512 3.1321 15.6009 3.1321C15.7373 3.1321 15.8843 3.14063 16.042 3.15767C16.1996 3.17472 16.3381 3.19815 16.4575 3.22798V5.64418C16.3296 5.60582 16.1528 5.57173 15.9269 5.5419C15.7011 5.51207 15.4944 5.49716 15.3069 5.49716C14.9063 5.49716 14.5484 5.58452 14.233 5.75923C13.9219 5.92969 13.6748 6.16832 13.4915 6.47514C13.3126 6.78196 13.2231 7.13565 13.2231 7.53622V13.0909H10.5001Z" fill="#1C2C65"/>
<path id="Vector_5" d="M0.000110959 13.0909V0H8.66772V2.28196H2.76787V5.40128H8.09244V7.68324H2.76787V13.0909H0.000110959Z" fill="#1C2C65"/>
</g>
      </svg>
    </g>
  <g transform="translate(724.90, 141.62) rotate(-30)">
      <rect x="-50.982" y="-14.642" width="101.964" height="29.283" rx="99" fill="#e8f4fc"/>
      <svg x="-26.982" y="-6.642" width="53.964" height="13.283" viewBox="0 0 53.9640 13.2830" overflow="visible">
        <g id="Frame">
<path id="Vector" d="M49.4577 13.2827C48.4478 13.2827 47.5785 13.0781 46.8498 12.669C46.1254 12.2557 45.5671 11.6719 45.1751 10.9176C44.783 10.1591 44.587 9.26207 44.587 8.22656C44.587 7.21662 44.783 6.33026 45.1751 5.56747C45.5671 4.80469 46.119 4.21023 46.8306 3.78409C47.5465 3.35796 48.386 3.14489 49.3491 3.14489C49.9968 3.14489 50.5998 3.24929 51.158 3.4581C51.7205 3.66264 52.2106 3.97159 52.6282 4.38494C53.0501 4.7983 53.3782 5.31818 53.6126 5.9446C53.847 6.56676 53.9641 7.29546 53.9641 8.13068V8.87855H45.6737V7.19105H51.4009C51.4009 6.79901 51.3157 6.45171 51.1452 6.14915C50.9748 5.84659 50.7383 5.61009 50.4357 5.43963C50.1374 5.26492 49.7901 5.17756 49.3938 5.17756C48.9805 5.17756 48.614 5.27344 48.2944 5.4652C47.9791 5.6527 47.7319 5.90625 47.5529 6.22585C47.3739 6.54119 47.2823 6.89276 47.2781 7.28054V8.88494C47.2781 9.37074 47.3675 9.79048 47.5465 10.1442C47.7298 10.4979 47.9876 10.7706 48.32 10.9624C48.6523 11.1541 49.0465 11.25 49.5025 11.25C49.805 11.25 50.082 11.2074 50.3335 11.1222C50.5849 11.0369 50.8001 10.9091 50.9791 10.7386C51.158 10.5682 51.2944 10.3594 51.3881 10.1122L53.9066 10.2784C53.7788 10.8835 53.5167 11.4119 53.1204 11.8636C52.7283 12.3111 52.2212 12.6605 51.5991 12.9119C50.9812 13.1591 50.2674 13.2827 49.4577 13.2827Z" fill="#1C2C65"/>
<path id="Vector_2" d="M28.3853 13.0909V3.27273H30.9805V5.00497H31.0956C31.3001 4.42969 31.641 3.97585 32.1183 3.64347C32.5956 3.31108 33.1666 3.14489 33.8314 3.14489C34.5047 3.14489 35.0778 3.31321 35.5508 3.64986C36.0238 3.98225 36.3392 4.43395 36.4969 5.00497H36.5991C36.7994 4.44247 37.1616 3.9929 37.6858 3.65625C38.2142 3.31534 38.8385 3.14489 39.5586 3.14489C40.4748 3.14489 41.2184 3.43679 41.7895 4.0206C42.3648 4.60014 42.6524 5.42259 42.6524 6.48793V13.0909H39.9358V7.02486C39.9358 6.4794 39.7909 6.07031 39.5011 5.79759C39.2113 5.52486 38.8491 5.3885 38.4145 5.3885C37.9202 5.3885 37.5345 5.54617 37.2575 5.86151C36.9805 6.17259 36.842 6.58381 36.842 7.09517V13.0909H34.2021V6.96733C34.2021 6.4858 34.0636 6.10227 33.7866 5.81676C33.5139 5.53125 33.1538 5.3885 32.7064 5.3885C32.4038 5.3885 32.1311 5.4652 31.8882 5.61861C31.6496 5.76776 31.4599 5.97869 31.3193 6.25142C31.1787 6.51989 31.1084 6.83523 31.1084 7.19744V13.0909H28.3853Z" fill="#1C2C65"/>
<path id="Vector_3" d="M20.5637 13.2763C19.9372 13.2763 19.379 13.1676 18.8889 12.9503C18.3989 12.7287 18.0111 12.4027 17.7256 11.9723C17.4443 11.5376 17.3037 10.9965 17.3037 10.3487C17.3037 9.80327 17.4039 9.34517 17.6041 8.97443C17.8044 8.60369 18.0771 8.3054 18.4223 8.07955C18.7675 7.85369 19.1595 7.68324 19.5985 7.56818C20.0416 7.45313 20.5061 7.37216 20.9919 7.32529C21.5629 7.26563 22.0232 7.21023 22.3726 7.15909C22.722 7.1037 22.9756 7.02273 23.1333 6.91619C23.2909 6.80966 23.3698 6.65199 23.3698 6.44318V6.40483C23.3698 6 23.2419 5.68679 22.9862 5.4652C22.7348 5.24361 22.3769 5.13281 21.9124 5.13281C21.4223 5.13281 21.0324 5.24148 20.7426 5.45881C20.4529 5.67188 20.2611 5.94034 20.1673 6.26421L17.6489 6.05966C17.7767 5.46307 18.0281 4.94744 18.4031 4.51279C18.7781 4.07386 19.2618 3.73722 19.8541 3.50284C20.4507 3.26421 21.1411 3.14489 21.9252 3.14489C22.4706 3.14489 22.9926 3.20881 23.4912 3.33665C23.9941 3.46449 24.4394 3.66264 24.8272 3.93111C25.2192 4.19958 25.5281 4.54475 25.754 4.96662C25.9798 5.38423 26.0928 5.88494 26.0928 6.46875V13.0909H23.5104V11.7294H23.4337C23.276 12.0362 23.0651 12.3068 22.8009 12.5412C22.5367 12.7713 22.2192 12.9524 21.8485 13.0845C21.4777 13.2124 21.0495 13.2763 20.5637 13.2763ZM21.3435 11.397C21.7441 11.397 22.0977 11.3182 22.4046 11.1605C22.7114 10.9986 22.9521 10.7813 23.1269 10.5085C23.3016 10.2358 23.3889 9.92685 23.3889 9.58168V8.53977C23.3037 8.59517 23.1865 8.64631 23.0374 8.69318C22.8925 8.7358 22.7284 8.77628 22.5452 8.81463C22.362 8.84872 22.1787 8.88068 21.9955 8.91051C21.8122 8.93608 21.646 8.95952 21.4969 8.98083C21.1773 9.0277 20.8982 9.10227 20.6595 9.20455C20.4209 9.30682 20.2355 9.44531 20.1034 9.62003C19.9713 9.79048 19.9053 10.0036 19.9053 10.2592C19.9053 10.63 20.0395 10.9134 20.308 11.1094C20.5807 11.3011 20.9259 11.397 21.3435 11.397Z" fill="#1C2C65"/>
<path id="Vector_4" d="M10.5 13.0909V3.27273H13.1399V4.9858H13.2421C13.4211 4.37642 13.7215 3.91619 14.1434 3.60511C14.5653 3.28977 15.0511 3.1321 15.6008 3.1321C15.7372 3.1321 15.8842 3.14063 16.0419 3.15767C16.1995 3.17472 16.338 3.19815 16.4573 3.22798V5.64418C16.3295 5.60582 16.1527 5.57173 15.9268 5.5419C15.701 5.51208 15.4943 5.49716 15.3068 5.49716C14.9062 5.49716 14.5483 5.58452 14.2329 5.75923C13.9218 5.92969 13.6747 6.16832 13.4914 6.47514C13.3125 6.78196 13.223 7.13565 13.223 7.53622V13.0909H10.5Z" fill="#1C2C65"/>
<path id="Vector_5" d="M0 13.0909V0H8.66761V2.28196H2.76776V5.40128H8.09233V7.68324H2.76776V13.0909H0Z" fill="#1C2C65"/>
</g>
      </svg>
    </g>
  <g transform="translate(358.78, 191.09) rotate(10.18)">
      <rect x="-38.996" y="-14.642" width="77.992" height="29.283" rx="99" fill="#e8f4fc"/>
      <svg x="-14.996" y="-6.642" width="29.992" height="13.283" viewBox="0 0 29.9920 13.2830" overflow="visible">
        <g id="Act">
<path id="Vector" d="M29.8131 3.27273V5.31818H23.9004V3.27273H29.8131ZM25.2428 0.920454H27.9658V10.0739C27.9658 10.3253 28.0041 10.5213 28.0808 10.6619C28.1575 10.7983 28.2641 10.8942 28.4004 10.9496C28.541 11.005 28.703 11.0327 28.8862 11.0327C29.0141 11.0327 29.1419 11.022 29.2697 11.0007C29.3976 10.9751 29.4956 10.956 29.5638 10.9432L29.992 12.9695C29.8557 13.0121 29.6639 13.0611 29.4168 13.1165C29.1696 13.1761 28.8692 13.2124 28.5155 13.2251C27.8592 13.2507 27.2839 13.1634 26.7896 12.9631C26.2996 12.7628 25.9182 12.4517 25.6455 12.0298C25.3727 11.608 25.2385 11.0753 25.2428 10.4318V0.920454Z" fill="#1C2C65"/>
<path id="Vector_2" d="M18.2824 13.2827C17.2767 13.2827 16.4117 13.0696 15.6872 12.6435C14.967 12.2131 14.4131 11.6165 14.0253 10.8537C13.6418 10.0909 13.45 9.21307 13.45 8.22017C13.45 7.21449 13.6439 6.33239 14.0317 5.57386C14.4237 4.81108 14.9798 4.21662 15.7 3.79048C16.4202 3.36009 17.2767 3.14489 18.2696 3.14489C19.1261 3.14489 19.8761 3.30043 20.5196 3.61151C21.1631 3.92259 21.6723 4.35938 22.0473 4.92188C22.4223 5.48438 22.629 6.14489 22.6673 6.90341H20.0977C20.0253 6.41335 19.8335 6.01918 19.5224 5.72088C19.2156 5.41833 18.8129 5.26705 18.3143 5.26705C17.8925 5.26705 17.5239 5.3821 17.2085 5.61222C16.8974 5.83807 16.6545 6.16833 16.4798 6.60298C16.3051 7.03764 16.2178 7.56392 16.2178 8.18182C16.2178 8.80824 16.303 9.34091 16.4734 9.77983C16.6482 10.2188 16.8932 10.5533 17.2085 10.7834C17.5239 11.0135 17.8925 11.1286 18.3143 11.1286C18.6254 11.1286 18.9045 11.0646 19.1517 10.9368C19.4031 10.809 19.6098 10.6236 19.7717 10.3807C19.9379 10.1335 20.0466 9.83736 20.0977 9.49219H22.6673C22.6247 10.2422 22.4202 10.9027 22.0537 11.4737C21.6915 12.0405 21.1908 12.4837 20.5516 12.8033C19.9124 13.1229 19.156 13.2827 18.2824 13.2827Z" fill="#1C2C65"/>
<path id="Vector_3" d="M2.96602 13.0909H0.000114372L4.51929 0H8.08605L12.5988 13.0909H9.63293L6.35381 2.99148H6.25153L2.96602 13.0909ZM2.78065 7.94531H9.78634V10.1058H2.78065V7.94531Z" fill="#1C2C65"/>
</g>
      </svg>
    </g>
  <g transform="translate(616.42, 190.14) rotate(-12.89)">
      <rect x="-38.996" y="-14.642" width="77.992" height="29.283" rx="99" fill="#e8f4fc"/>
      <svg x="-14.996" y="-6.642" width="29.992" height="13.283" viewBox="0 0 29.9920 13.2830" overflow="visible">
        <g id="Act">
<path id="Vector" d="M29.8129 3.27273V5.31818H23.9003V3.27273H29.8129ZM25.2426 0.920454H27.9656V10.0739C27.9656 10.3253 28.004 10.5213 28.0807 10.6619C28.1574 10.7983 28.2639 10.8942 28.4003 10.9496C28.5409 11.005 28.7029 11.0327 28.8861 11.0327C29.0139 11.0327 29.1418 11.022 29.2696 11.0007C29.3975 10.9751 29.4955 10.956 29.5637 10.9432L29.9919 12.9695C29.8556 13.0121 29.6638 13.0611 29.4166 13.1165C29.1695 13.1761 28.8691 13.2124 28.5154 13.2251C27.8591 13.2507 27.2838 13.1634 26.7895 12.9631C26.2995 12.7628 25.9181 12.4517 25.6453 12.0298C25.3726 11.608 25.2384 11.0753 25.2426 10.4318V0.920454Z" fill="#1C2C65"/>
<path id="Vector_2" d="M18.2823 13.2827C17.2766 13.2827 16.4115 13.0696 15.6871 12.6435C14.9669 12.2131 14.413 11.6165 14.0252 10.8537C13.6416 10.0909 13.4499 9.21307 13.4499 8.22017C13.4499 7.21449 13.6438 6.33239 14.0316 5.57386C14.4236 4.81108 14.9797 4.21662 15.6999 3.79048C16.4201 3.36009 17.2766 3.14489 18.2695 3.14489C19.126 3.14489 19.876 3.30043 20.5195 3.61151C21.163 3.92259 21.6722 4.35938 22.0472 4.92188C22.4222 5.48438 22.6289 6.14489 22.6672 6.90341H20.0976C20.0252 6.41335 19.8334 6.01918 19.5223 5.72088C19.2155 5.41833 18.8128 5.26705 18.3142 5.26705C17.8924 5.26705 17.5238 5.3821 17.2084 5.61222C16.8973 5.83807 16.6544 6.16833 16.4797 6.60298C16.305 7.03764 16.2176 7.56392 16.2176 8.18182C16.2176 8.80824 16.3029 9.34091 16.4733 9.77983C16.648 10.2188 16.8931 10.5533 17.2084 10.7834C17.5238 11.0135 17.8924 11.1286 18.3142 11.1286C18.6253 11.1286 18.9044 11.0646 19.1516 10.9368C19.403 10.809 19.6097 10.6236 19.7716 10.3807C19.9378 10.1335 20.0465 9.83736 20.0976 9.49219H22.6672C22.6246 10.2422 22.4201 10.9027 22.0536 11.4737C21.6914 12.0405 21.1907 12.4837 20.5515 12.8033C19.9122 13.1229 19.1559 13.2827 18.2823 13.2827Z" fill="#1C2C65"/>
<path id="Vector_3" d="M2.96591 13.0909H0L4.51918 0H8.08594L12.5987 13.0909H9.63281L6.35369 2.99148H6.25142L2.96591 13.0909ZM2.78054 7.94531H9.78622V10.1058H2.78054V7.94531Z" fill="#1C2C65"/>
</g>
      </svg>
    </g>
  <g transform="translate(486.81, 203.74) rotate(0)">
      <rect x="-55.006" y="-14.948" width="110.012" height="29.896" rx="99" fill="#e8f4fc"/>
      <svg x="-31.006" y="-6.948" width="62.013" height="13.896" viewBox="0 0 62.0130 13.8960" overflow="visible">
        <g id="Reflect">
<path id="Vector" d="M61.8332 3.88636V5.93182H55.9206V3.88636H61.8332ZM57.2629 1.53409H59.9859V10.6875C59.9859 10.9389 60.0243 11.1349 60.101 11.2756C60.1777 11.4119 60.2842 11.5078 60.4206 11.5632C60.5612 11.6186 60.7231 11.6463 60.9064 11.6463C61.0342 11.6463 61.162 11.6357 61.2899 11.6143C61.4177 11.5888 61.5157 11.5696 61.5839 11.5568L62.0122 13.5831C61.8758 13.6257 61.6841 13.6747 61.4369 13.7301C61.1897 13.7898 60.8893 13.826 60.5356 13.8388C59.8794 13.8643 59.3041 13.777 58.8098 13.5767C58.3197 13.3764 57.9383 13.0653 57.6656 12.6435C57.3929 12.2216 57.2586 11.6889 57.2629 11.0455V1.53409Z" fill="#1C2C65"/>
<path id="Vector_2" d="M50.3025 13.8963C49.2968 13.8963 48.4318 13.6832 47.7073 13.2571C46.9872 12.8267 46.4332 12.2301 46.0454 11.4673C45.6619 10.7045 45.4701 9.82671 45.4701 8.83381C45.4701 7.82813 45.664 6.94602 46.0518 6.1875C46.4439 5.42472 47 4.83026 47.7201 4.40412C48.4403 3.97372 49.2968 3.75852 50.2897 3.75852C51.1463 3.75852 51.8963 3.91406 52.5397 4.22514C53.1832 4.53622 53.6924 4.97301 54.0674 5.53551C54.4424 6.09801 54.6491 6.75852 54.6875 7.51705H52.1179C52.0454 7.02699 51.8537 6.63281 51.5426 6.33452C51.2358 6.03196 50.8331 5.88068 50.3345 5.88068C49.9126 5.88068 49.544 5.99574 49.2287 6.22585C48.9176 6.45171 48.6747 6.78196 48.5 7.21662C48.3252 7.65128 48.2379 8.17756 48.2379 8.79545C48.2379 9.42188 48.3231 9.95455 48.4936 10.3935C48.6683 10.8324 48.9133 11.1669 49.2287 11.397C49.544 11.6271 49.9126 11.7422 50.3345 11.7422C50.6456 11.7422 50.9247 11.6783 51.1718 11.5504C51.4233 11.4226 51.6299 11.2372 51.7919 10.9943C51.9581 10.7472 52.0667 10.451 52.1179 10.1058H54.6875C54.6448 10.8558 54.4403 11.5163 54.0738 12.0874C53.7116 12.6541 53.2109 13.0973 52.5717 13.4169C51.9325 13.7365 51.1761 13.8963 50.3025 13.8963Z" fill="#1C2C65"/>
<path id="Vector_3" d="M39.4031 13.8963C38.3931 13.8963 37.5238 13.6918 36.7951 13.2827C36.0707 12.8693 35.5124 12.2855 35.1204 11.5313C34.7283 10.7727 34.5323 9.87571 34.5323 8.8402C34.5323 7.83026 34.7283 6.94389 35.1204 6.18111C35.5124 5.41833 36.0643 4.82386 36.7759 4.39773C37.4918 3.97159 38.3313 3.75852 39.2944 3.75852C39.9421 3.75852 40.5451 3.86293 41.1033 4.07173C41.6658 4.27628 42.1559 4.58523 42.5735 4.99858C42.9954 5.41193 43.3235 5.93182 43.5579 6.55824C43.7923 7.1804 43.9095 7.90909 43.9095 8.74432V9.49219H35.619V7.80469H41.3462C41.3462 7.41264 41.261 7.06534 41.0906 6.76279C40.9201 6.46023 40.6836 6.22372 40.381 6.05327C40.0828 5.87855 39.7355 5.79119 39.3391 5.79119C38.9258 5.79119 38.5593 5.88708 38.2397 6.07884C37.9244 6.26634 37.6772 6.51989 37.4982 6.83949C37.3193 7.15483 37.2276 7.50639 37.2234 7.89418V9.49858C37.2234 9.98438 37.3129 10.4041 37.4918 10.7578C37.6751 11.1115 37.9329 11.3842 38.2653 11.576C38.5977 11.7678 38.9918 11.8636 39.4478 11.8636C39.7504 11.8636 40.0274 11.821 40.2788 11.7358C40.5302 11.6506 40.7454 11.5227 40.9244 11.3523C41.1033 11.1818 41.2397 10.973 41.3335 10.7259L43.8519 10.892C43.7241 11.4972 43.462 12.0256 43.0657 12.4773C42.6737 12.9247 42.1666 13.2741 41.5444 13.5256C40.9265 13.7727 40.2127 13.8963 39.4031 13.8963Z" fill="#1C2C65"/>
<path id="Vector_4" d="M32.5673 0.613636V13.7045H29.8443V0.613636H32.5673Z" fill="#1C2C65"/>
<path id="Vector_5" d="M28.0008 3.88636V5.93182H21.9411V3.88636H28.0008ZM23.3282 13.7045V3.17685C23.3282 2.4652 23.4667 1.875 23.7437 1.40625C24.0249 0.9375 24.4085 0.585938 24.8943 0.351562C25.3801 0.117188 25.9319 0 26.5498 0C26.9674 0 27.3488 0.0319605 27.694 0.0958815C28.0434 0.159802 28.3034 0.21733 28.4738 0.268466L27.988 2.31392C27.8815 2.27983 27.7494 2.24787 27.5917 2.21804C27.4383 2.18821 27.2806 2.1733 27.1187 2.1733C26.7181 2.1733 26.439 2.26705 26.2813 2.45455C26.1237 2.63778 26.0448 2.8956 26.0448 3.22798V13.7045H23.3282Z" fill="#1C2C65"/>
<path id="Vector_6" d="M16.2576 13.8963C15.2476 13.8963 14.3783 13.6918 13.6496 13.2827C12.9252 12.8693 12.367 12.2855 11.9749 11.5313C11.5829 10.7727 11.3869 9.87571 11.3869 8.8402C11.3869 7.83026 11.5829 6.94389 11.9749 6.18111C12.367 5.41833 12.9188 4.82386 13.6305 4.39773C14.3464 3.97159 15.1859 3.75852 16.1489 3.75852C16.7967 3.75852 17.3996 3.86293 17.9579 4.07173C18.5204 4.27628 19.0104 4.58523 19.428 4.99858C19.8499 5.41193 20.178 5.93182 20.4124 6.55824C20.6468 7.1804 20.764 7.90909 20.764 8.74432V9.49219H12.4735V7.80469H18.2008C18.2008 7.41264 18.1155 7.06534 17.9451 6.76279C17.7746 6.46023 17.5381 6.22372 17.2356 6.05327C16.9373 5.87855 16.59 5.79119 16.1937 5.79119C15.7803 5.79119 15.4138 5.88708 15.0942 6.07884C14.7789 6.26634 14.5317 6.51989 14.3528 6.83949C14.1738 7.15483 14.0822 7.50639 14.0779 7.89418V9.49858C14.0779 9.98438 14.1674 10.4041 14.3464 10.7578C14.5296 11.1115 14.7874 11.3842 15.1198 11.576C15.4522 11.7678 15.8464 11.8636 16.3023 11.8636C16.6049 11.8636 16.8819 11.821 17.1333 11.7358C17.3847 11.6506 17.5999 11.5227 17.7789 11.3523C17.9579 11.1818 18.0942 10.973 18.188 10.7259L20.7065 10.892C20.5786 11.4972 20.3165 12.0256 19.9202 12.4773C19.5282 12.9247 19.0211 13.2741 18.3989 13.5256C17.781 13.7727 17.0673 13.8963 16.2576 13.8963Z" fill="#1C2C65"/>
<path id="Vector_7" d="M0 13.7045V0.613636H5.16477C6.15341 0.613636 6.99716 0.790483 7.69602 1.14418C8.39915 1.49361 8.93395 1.99006 9.30043 2.63352C9.67117 3.27273 9.85653 4.02486 9.85653 4.88991C9.85653 5.75923 9.66903 6.5071 9.29403 7.13352C8.91903 7.75568 8.37571 8.23295 7.66406 8.56534C6.95668 8.89773 6.10014 9.06392 5.09446 9.06392H1.63636V6.83949H4.64702C5.17543 6.83949 5.61435 6.76705 5.96378 6.62216C6.31321 6.47727 6.57315 6.25994 6.74361 5.97017C6.91832 5.6804 7.00568 5.32031 7.00568 4.88991C7.00568 4.45526 6.91832 4.08878 6.74361 3.79048C6.57315 3.49219 6.31108 3.26633 5.95739 3.11293C5.60796 2.95526 5.1669 2.87642 4.63423 2.87642H2.76776V13.7045H0ZM7.0696 7.74716L10.3232 13.7045H7.26776L4.08452 7.74716H7.0696Z" fill="#1C2C65"/>
</g>
      </svg>
    </g>
</svg>