<svg preserveAspectRatio="none" width="100%" height="100%" overflow="visible" style="display: block;" viewBox="0 0 677.152 207.395" fill="none" xmlns="http://www.w3.org/2000/svg">
<g id="Group 4">
<g id="Vector">
<path d="M35.3808 33.4967C35.3808 77.1113 69.45 116.968 125.369 146.009C181.214 175.013 258.467 192.997 343.881 192.997C429.294 192.997 506.548 175.013 562.393 146.009C618.312 116.968 652.381 77.1113 652.381 33.4967H655.381C655.381 78.8001 620.054 119.444 563.775 148.673C507.422 177.94 429.675 195.997 343.881 195.997C258.086 195.997 180.339 177.94 123.986 148.673C67.7075 119.444 32.3808 78.8001 32.3808 33.4967H35.3808Z" fill="var(--fill-0, #E8F4FC)"/>
<path d="M52.3105 56.6521L27.6165 9.47076C23.8668 2.30648 15.0193 -0.461597 7.85499 3.28808C0.690714 7.03776 -2.07737 15.8853 1.67231 23.0496L26.3663 70.2309C30.116 77.3952 38.9635 80.1632 46.1278 76.4136C53.2921 72.6639 56.0602 63.8164 52.3105 56.6521Z" fill="var(--fill-0, #E8F4FC)"/>
<path d="M648.364 10.8556L634.581 62.2947C632.488 70.1054 637.124 78.1338 644.934 80.2267C652.745 82.3196 660.773 77.6843 662.866 69.8736L676.649 18.4345C678.742 10.6239 674.107 2.59539 666.296 0.502526C658.486 -1.59034 650.457 3.04489 648.364 10.8556Z" fill="var(--fill-0, #E8F4FC)"/>
<path d="M143.596 137.848L82.4889 98.497C75.6904 94.119 66.6301 96.0812 62.2521 102.88C57.8742 109.678 59.8364 118.739 66.6348 123.117L127.742 162.467C134.541 166.845 143.601 164.883 147.979 158.085C152.357 151.286 150.395 142.226 143.596 137.848Z" fill="var(--fill-0, #E8F4FC)"/>
<path d="M608.125 99.4783L545.18 135.819C538.178 139.862 535.778 148.817 539.821 155.819C543.864 162.822 552.819 165.221 559.822 161.178L622.766 124.838C629.769 120.795 632.168 111.84 628.125 104.837C624.082 97.8346 615.127 95.4352 608.125 99.4783Z" fill="var(--fill-0, #E8F4FC)"/>
<path d="M244.411 169.696L196.469 161.087C188.51 159.658 180.899 164.952 179.47 172.911C178.041 180.87 183.334 188.48 191.293 189.909L239.235 198.518C247.194 199.947 254.805 194.654 256.234 186.695C257.663 178.736 252.37 171.125 244.411 169.696Z" fill="var(--fill-0, #E8F4FC)"/>
<path d="M495.965 159.147L448.484 170.017C440.602 171.822 435.675 179.674 437.479 187.557C439.284 195.439 447.136 200.365 455.018 198.561L502.5 187.691C510.382 185.886 515.309 178.034 513.504 170.152C511.7 162.269 503.847 157.343 495.965 159.147Z" fill="var(--fill-0, #E8F4FC)"/>
<path d="M385.942 177.5H305.825C297.569 177.5 290.877 184.192 290.877 192.447C290.877 200.703 297.569 207.395 305.825 207.395H385.942C394.197 207.395 400.89 200.703 400.89 192.447C400.89 184.192 394.197 177.5 385.942 177.5Z" fill="var(--fill-0, #E8F4FC)"/>
</g>
<g id="Vector_2">
<path d="M40.4958 52.0971L28.8974 58.1675L27.6347 55.755L39.2331 49.6845L40.4958 52.0971Z" fill="var(--fill-0, #1C2C65)"/>
<path d="M24.4678 50.117C23.9995 49.2222 23.7776 48.3571 23.8021 47.5218C23.8324 46.6883 24.0908 45.923 24.5773 45.2259C25.0675 44.5268 25.7714 43.9372 26.6888 43.457C27.5836 42.9887 28.4598 42.7513 29.3174 42.745C30.175 42.7386 30.9576 42.9519 31.6652 43.3848C32.3747 43.8215 32.9528 44.4664 33.3993 45.3197C33.6997 45.8936 33.8868 46.4762 33.9607 47.0676C34.0403 47.6609 33.9938 48.2383 33.8212 48.8C33.6506 49.3654 33.3422 49.8972 32.8959 50.3954C32.4533 50.8915 31.8621 51.3332 31.1221 51.7205L30.4595 52.0673L26.6151 44.7221L28.1102 43.9396L30.766 49.0139C31.1133 48.8321 31.3815 48.5955 31.5705 48.3042C31.7595 48.0129 31.8594 47.6937 31.8701 47.3465C31.8866 47.0012 31.8029 46.653 31.6192 46.3019C31.4275 45.9357 31.1726 45.6555 30.8545 45.4612C30.5422 45.2688 30.2029 45.1674 29.8368 45.157C29.4744 45.1447 29.1204 45.2265 28.7749 45.4025L27.3534 46.1465C26.923 46.3718 26.5926 46.6457 26.3622 46.9683C26.1338 47.2947 26.0117 47.6496 25.996 48.033C25.9802 48.4164 26.078 48.8101 26.2895 49.214C26.4298 49.4821 26.596 49.7078 26.7881 49.891C26.9802 50.0742 27.1932 50.2056 27.4272 50.2851C27.6612 50.3647 27.9095 50.3887 28.1719 50.3571L29.1925 52.6655C28.5971 52.8328 28.0074 52.8457 27.4235 52.704C26.8452 52.5641 26.3005 52.2769 25.7892 51.8423C25.2837 51.4094 24.8432 50.8343 24.4678 50.117Z" fill="var(--fill-0, #1C2C65)"/>
<path d="M19.3956 40.4266C18.9272 39.5318 18.7053 38.6667 18.7299 37.8314C18.7602 36.9979 19.0186 36.2326 19.505 35.5355C19.9953 34.8364 20.6991 34.2467 21.6166 33.7666C22.5114 33.2982 23.3876 33.0609 24.2452 33.0545C25.1028 33.0482 25.8854 33.2614 26.5929 33.6943C27.3024 34.131 27.8805 34.776 28.3271 35.6293C28.6274 36.2031 28.8145 36.7858 28.8884 37.3772C28.968 37.9704 28.9215 38.5479 28.749 39.1095C28.5784 39.675 28.2699 40.2068 27.8236 40.7049C27.3811 41.2011 26.7898 41.6428 26.0498 42.0301L25.3872 42.3769L21.5428 35.0317L23.0379 34.2491L25.6937 39.3234C26.041 39.1416 26.3092 38.9051 26.4982 38.6138C26.6873 38.3224 26.7871 38.0032 26.7979 37.6561C26.8143 37.3108 26.7307 36.9626 26.5469 36.6115C26.3552 36.2453 26.1003 35.965 25.7822 35.7708C25.4699 35.5783 25.1306 35.4769 24.7645 35.4666C24.4021 35.4542 24.0481 35.5361 23.7026 35.7121L22.2811 36.4561C21.8507 36.6814 21.5203 36.9553 21.29 37.2779C21.0616 37.6042 20.9395 37.9591 20.9237 38.3425C20.908 38.7259 21.0058 39.1196 21.2172 39.5236C21.3575 39.7917 21.5237 40.0173 21.7158 40.2006C21.9079 40.3838 22.121 40.5152 22.355 40.5947C22.589 40.6742 22.8372 40.6982 23.0997 40.6667L24.1203 42.9751C23.5249 43.1424 22.9352 43.1552 22.3512 43.0136C21.773 42.8737 21.2282 42.5865 20.717 42.1518C20.2115 41.719 19.771 41.1439 19.3956 40.4266Z" fill="var(--fill-0, #1C2C65)"/>
<path d="M12.8828 27.5694L24.4812 21.499L28.5004 29.1784L26.4786 30.2366L23.7428 25.0094L20.9792 26.4559L23.4482 31.1734L21.4264 32.2315L18.9574 27.514L14.1663 30.0216L12.8828 27.5694Z" fill="var(--fill-0, #1C2C65)"/>
<path d="M653.283 21.9928L665.927 25.381L665.223 28.0112L652.578 24.623L653.283 21.9928Z" fill="var(--fill-0, #1C2C65)"/>
<path d="M663.735 34.3048C663.474 35.2803 663.051 36.0671 662.468 36.6651C661.881 37.2578 661.172 37.6459 660.342 37.8294C659.508 38.0118 658.591 37.969 657.591 37.701C656.615 37.4396 655.81 37.0208 655.174 36.4447C654.539 35.8686 654.108 35.1817 653.88 34.384C653.654 33.5822 653.665 32.7162 653.915 31.7859C654.082 31.1603 654.339 30.6049 654.685 30.1197C655.029 29.6293 655.454 29.2359 655.961 28.9395C656.47 28.639 657.057 28.4566 657.723 28.3923C658.384 28.327 659.118 28.4024 659.925 28.6185L660.648 28.8121L658.502 36.8201L656.872 36.3833L658.354 30.8512C657.975 30.7498 657.618 30.7422 657.282 30.8285C656.945 30.9149 656.656 31.0821 656.413 31.3302C656.167 31.5731 655.992 31.886 655.89 32.2688C655.783 32.668 655.781 33.0469 655.883 33.4052C655.983 33.7583 656.163 34.0627 656.426 34.3183C656.684 34.5728 657 34.7523 657.373 34.8567L658.923 35.272C659.392 35.3977 659.821 35.4199 660.209 35.3386C660.598 35.2531 660.928 35.0747 661.199 34.8033C661.471 34.5318 661.665 34.1759 661.783 33.7355C661.862 33.4432 661.892 33.1647 661.875 32.8997C661.858 32.6348 661.79 32.3939 661.672 32.1769C661.553 31.9599 661.387 31.7741 661.172 31.6196L661.985 29.23C662.536 29.5101 662.979 29.9 663.313 30.3997C663.643 30.8942 663.85 31.4745 663.931 32.1405C664.01 32.8013 663.945 33.5227 663.735 34.3048Z" fill="var(--fill-0, #1C2C65)"/>
<path d="M660.904 44.8693C660.643 45.8448 660.22 46.6315 659.636 47.2295C659.05 47.8223 658.341 48.2104 657.511 48.3939C656.677 48.5762 655.76 48.5334 654.76 48.2654C653.784 48.004 652.979 47.5853 652.343 47.0092C651.708 46.433 651.277 45.7461 651.049 44.9485C650.823 44.1466 650.834 43.2806 651.084 42.3504C651.251 41.7247 651.508 41.1693 651.854 40.6841C652.198 40.1937 652.623 39.8003 653.13 39.5039C653.639 39.2034 654.226 39.021 654.891 38.9568C655.553 38.8914 656.287 38.9668 657.094 39.183L657.816 39.3765L655.671 47.3845L654.041 46.9478L655.523 41.4157C655.144 41.3142 654.787 41.3066 654.45 41.393C654.114 41.4793 653.824 41.6465 653.581 41.8947C653.336 42.1376 653.161 42.4504 653.059 42.8332C652.952 43.2325 652.949 43.6113 653.052 43.9697C653.151 44.3228 653.332 44.6271 653.595 44.8827C653.853 45.1372 654.169 45.3167 654.542 45.4212L656.092 45.8365C656.561 45.9622 656.99 45.9844 657.378 45.903C657.767 45.8176 658.097 45.6392 658.368 45.3677C658.64 45.0963 658.834 44.7404 658.952 44.2999C659.031 44.0077 659.061 43.7291 659.044 43.4642C659.027 43.1993 658.959 42.9583 658.841 42.7413C658.722 42.5243 658.556 42.3386 658.341 42.1841L659.154 39.7944C659.705 40.0745 660.148 40.4644 660.481 40.9641C660.812 41.4586 661.018 42.0389 661.1 42.7049C661.179 43.3657 661.114 44.0872 660.904 44.8693Z" fill="var(--fill-0, #1C2C65)"/>
<path d="M656.989 58.7407L644.344 55.3525L646.587 46.9802L648.791 47.5709L647.264 53.2697L650.277 54.077L651.656 48.9339L653.86 49.5245L652.482 54.6676L657.705 56.0672L656.989 58.7407Z" fill="var(--fill-0, #1C2C65)"/>
<path d="M120.029 148.261C119.18 147.714 118.56 147.072 118.169 146.333C117.784 145.593 117.63 144.8 117.709 143.954C117.79 143.104 118.111 142.244 118.672 141.373C119.218 140.524 119.863 139.885 120.606 139.456C121.348 139.027 122.134 138.826 122.963 138.853C123.796 138.882 124.617 139.157 125.427 139.679C125.971 140.03 126.422 140.444 126.778 140.922C127.14 141.398 127.385 141.923 127.512 142.497C127.643 143.073 127.638 143.687 127.495 144.341C127.356 144.991 127.06 145.667 126.607 146.369L126.203 146.998L119.232 142.509L120.146 141.091L124.961 144.192C125.173 143.862 125.29 143.524 125.31 143.177C125.331 142.83 125.26 142.504 125.098 142.196C124.942 141.888 124.697 141.627 124.364 141.412C124.016 141.188 123.656 141.07 123.284 141.059C122.917 141.046 122.572 141.125 122.248 141.297C121.927 141.465 121.66 141.711 121.446 142.035L120.578 143.384C120.315 143.792 120.163 144.193 120.122 144.588C120.084 144.984 120.153 145.353 120.329 145.694C120.505 146.035 120.784 146.329 121.167 146.576C121.422 146.74 121.678 146.854 121.935 146.919C122.193 146.983 122.443 146.992 122.686 146.946C122.928 146.899 123.156 146.798 123.369 146.641L125.396 148.144C124.961 148.583 124.455 148.886 123.877 149.051C123.305 149.215 122.69 149.234 122.03 149.109C121.377 148.982 120.71 148.699 120.029 148.261Z" fill="var(--fill-0, #1C2C65)"/>
<path d="M102.416 136.691L107.732 128.437L109.914 129.842L108.976 131.298L109.073 131.36C109.556 130.987 110.088 130.79 110.67 130.769C111.251 130.748 111.821 130.918 112.38 131.278C112.946 131.642 113.337 132.094 113.552 132.633C113.77 133.169 113.791 133.719 113.614 134.285L113.7 134.34C114.173 133.976 114.721 133.794 115.344 133.794C115.973 133.794 116.59 133.989 117.195 134.378C117.966 134.875 118.433 135.523 118.597 136.323C118.767 137.121 118.563 137.968 117.986 138.864L114.412 144.416L112.127 142.945L115.412 137.845C115.707 137.386 115.807 136.964 115.711 136.578C115.615 136.191 115.384 135.881 115.019 135.645C114.603 135.378 114.193 135.301 113.79 135.417C113.389 135.528 113.049 135.799 112.773 136.229L109.526 141.27L107.307 139.841L110.622 134.692C110.883 134.287 110.974 133.89 110.896 133.5C110.821 133.112 110.595 132.797 110.219 132.555C109.965 132.391 109.694 132.308 109.407 132.305C109.125 132.302 108.852 132.376 108.586 132.529C108.322 132.679 108.092 132.906 107.896 133.211L104.705 138.166L102.416 136.691Z" fill="var(--fill-0, #1C2C65)"/>
<path d="M95.7396 132.612C95.2129 132.273 94.8024 131.879 94.5081 131.431C94.216 130.98 94.0665 130.496 94.0595 129.979C94.0583 129.461 94.2331 128.93 94.5838 128.386C94.8791 127.927 95.2113 127.596 95.5805 127.393C95.9496 127.19 96.3404 127.087 96.7529 127.084C97.1653 127.081 97.5872 127.149 98.0186 127.29C98.4535 127.434 98.8878 127.617 99.3216 127.841C99.834 128.1 100.251 128.302 100.572 128.448C100.896 128.591 101.153 128.66 101.344 128.656C101.534 128.652 101.685 128.562 101.798 128.386L101.819 128.354C102.038 128.014 102.1 127.681 102.005 127.357C101.914 127.034 101.673 126.747 101.283 126.496C100.871 126.23 100.484 126.111 100.123 126.136C99.7636 126.159 99.457 126.281 99.2029 126.502L97.1962 124.967C97.6267 124.534 98.1172 124.237 98.6678 124.074C99.2208 123.908 99.8097 123.887 100.435 124.011C101.065 124.133 101.71 124.407 102.37 124.831C102.828 125.127 103.233 125.463 103.582 125.84C103.936 126.22 104.203 126.628 104.384 127.063C104.568 127.501 104.641 127.959 104.602 128.436C104.566 128.909 104.39 129.391 104.074 129.882L100.489 135.45L98.3174 134.052L99.0546 132.907L98.9901 132.865C98.6914 133.038 98.3676 133.151 98.0185 133.205C97.6718 133.256 97.3068 133.236 96.9236 133.146C96.5427 133.053 96.148 132.875 95.7396 132.612ZM97.4127 131.454C97.7495 131.671 98.0895 131.796 98.4329 131.83C98.7785 131.86 99.0986 131.808 99.3931 131.673C99.6877 131.538 99.9284 131.326 100.115 131.035L100.679 130.159C100.578 130.16 100.452 130.139 100.301 130.098C100.156 130.056 99.996 130.001 99.8212 129.934C99.6487 129.863 99.4773 129.791 99.3071 129.717C99.1392 129.639 98.9868 129.569 98.8499 129.506C98.5558 129.372 98.2807 129.284 98.0247 129.241C97.7687 129.197 97.5379 129.214 97.3322 129.289C97.1289 129.361 96.958 129.504 96.8195 129.719C96.6188 130.031 96.5782 130.342 96.6978 130.652C96.8233 130.961 97.0616 131.228 97.4127 131.454Z" fill="var(--fill-0, #1C2C65)"/>
<path d="M87.3788 127.008L92.6946 118.753L94.9141 120.182L93.9866 121.623L94.0726 121.678C94.553 121.263 95.0548 121.038 95.5779 121.005C96.1033 120.968 96.5971 121.099 97.0593 121.396C97.1739 121.47 97.2929 121.557 97.4162 121.657C97.5396 121.756 97.6433 121.851 97.7275 121.941L96.4193 123.972C96.3326 123.871 96.2024 123.746 96.0286 123.599C95.8549 123.452 95.6892 123.327 95.5316 123.226C95.1948 123.009 94.8466 122.888 94.4868 122.865C94.133 122.839 93.796 122.906 93.4758 123.065C93.1592 123.226 92.8925 123.475 92.6756 123.812L89.6682 128.482L87.3788 127.008Z" fill="var(--fill-0, #1C2C65)"/>
<path d="M78.5508 121.323L85.6384 110.316L92.9257 115.009L91.6902 116.928L86.7299 113.734L85.041 116.356L89.5177 119.239L88.2822 121.157L83.8056 118.275L80.8778 122.821L78.5508 121.323Z" fill="var(--fill-0, #1C2C65)"/>
<path d="M606.372 124.868C605.497 125.373 604.642 125.63 603.806 125.64C602.972 125.644 602.197 125.418 601.48 124.961C600.761 124.5 600.143 123.821 599.625 122.924C599.12 122.05 598.847 121.184 598.805 120.327C598.763 119.471 598.944 118.68 599.347 117.955C599.754 117.228 600.375 116.624 601.209 116.142C601.77 115.819 602.344 115.607 602.932 115.509C603.521 115.405 604.1 115.428 604.668 115.577C605.241 115.724 605.785 116.01 606.301 116.435C606.815 116.857 607.281 117.429 607.698 118.153L608.072 118.8L600.892 122.946L600.049 121.484L605.009 118.621C604.813 118.281 604.565 118.023 604.266 117.846C603.967 117.669 603.644 117.583 603.297 117.586C602.951 117.584 602.607 117.682 602.264 117.88C601.906 118.087 601.636 118.353 601.455 118.679C601.276 118.999 601.189 119.342 601.194 119.709C601.196 120.071 601.293 120.422 601.483 120.76L602.285 122.149C602.528 122.57 602.815 122.888 603.147 123.105C603.483 123.32 603.842 123.427 604.226 123.427C604.61 123.427 604.999 123.313 605.394 123.085C605.656 122.934 605.875 122.758 606.05 122.559C606.225 122.359 606.347 122.141 606.417 121.904C606.487 121.667 606.501 121.418 606.458 121.157L608.722 120.041C608.914 120.629 608.951 121.218 608.834 121.807C608.718 122.391 608.454 122.947 608.041 123.476C607.629 123.999 607.073 124.463 606.372 124.868Z" fill="var(--fill-0, #1C2C65)"/>
<path d="M588.026 135.238L583.117 126.735L585.365 125.437L586.231 126.937L586.331 126.88C586.22 126.279 586.288 125.716 586.535 125.189C586.783 124.663 587.194 124.233 587.77 123.901C588.353 123.564 588.933 123.424 589.511 123.479C590.087 123.53 590.586 123.763 591.008 124.179L591.097 124.128C590.989 123.541 591.078 122.97 591.363 122.417C591.651 121.857 592.106 121.397 592.73 121.037C593.523 120.579 594.313 120.46 595.099 120.68C595.887 120.895 596.548 121.463 597.08 122.386L600.382 128.104L598.029 129.462L594.996 124.209C594.724 123.737 594.394 123.455 594.006 123.363C593.619 123.272 593.237 123.335 592.861 123.552C592.433 123.8 592.177 124.129 592.095 124.541C592.011 124.948 592.096 125.374 592.352 125.817L595.35 131.009L593.064 132.329L590.002 127.026C589.761 126.609 589.45 126.346 589.067 126.237C588.688 126.126 588.305 126.183 587.917 126.407C587.655 126.558 587.457 126.761 587.324 127.015C587.192 127.263 587.133 127.541 587.147 127.847C587.16 128.15 587.257 128.458 587.438 128.772L590.385 133.876L588.026 135.238Z" fill="var(--fill-0, #1C2C65)"/>
<path d="M581.346 139.309C580.803 139.622 580.265 139.807 579.732 139.864C579.197 139.917 578.698 139.829 578.236 139.599C577.775 139.363 577.382 138.965 577.059 138.404C576.786 137.931 576.644 137.485 576.632 137.063C576.62 136.642 576.707 136.247 576.893 135.879C577.079 135.511 577.333 135.167 577.656 134.848C577.982 134.527 578.344 134.225 578.741 133.941C579.206 133.604 579.576 133.326 579.854 133.107C580.128 132.884 580.308 132.687 580.391 132.516C580.474 132.345 580.464 132.169 580.359 131.988L580.34 131.955C580.138 131.605 579.87 131.397 579.538 131.333C579.209 131.267 578.844 131.35 578.442 131.582C578.017 131.827 577.734 132.116 577.592 132.449C577.447 132.779 577.416 133.107 577.496 133.435L575.213 134.517C575.025 133.936 574.985 133.364 575.093 132.8C575.198 132.232 575.449 131.699 575.844 131.2C576.242 130.695 576.78 130.246 577.459 129.854C577.931 129.582 578.415 129.376 578.911 129.237C579.41 129.097 579.895 129.046 580.365 129.084C580.839 129.121 581.279 129.265 581.686 129.518C582.09 129.766 582.438 130.143 582.73 130.649L586.041 136.384L583.805 137.675L583.124 136.496L583.058 136.534C583.074 136.879 583.027 137.219 582.915 137.554C582.802 137.885 582.617 138.201 582.362 138.501C582.105 138.797 581.766 139.066 581.346 139.309ZM581.081 137.292C581.428 137.091 581.695 136.846 581.882 136.556C582.067 136.263 582.167 135.954 582.181 135.631C582.196 135.307 582.118 134.996 581.945 134.697L581.424 133.795C581.378 133.885 581.302 133.988 581.196 134.103C581.092 134.212 580.97 134.33 580.831 134.454C580.689 134.576 580.546 134.695 580.403 134.812C580.257 134.926 580.125 135.029 580.006 135.122C579.753 135.323 579.548 135.527 579.393 135.735C579.237 135.943 579.146 136.155 579.119 136.373C579.09 136.586 579.139 136.804 579.267 137.025C579.452 137.347 579.71 137.525 580.041 137.56C580.373 137.59 580.72 137.5 581.081 137.292Z" fill="var(--fill-0, #1C2C65)"/>
<path d="M572.537 144.18L567.628 135.677L569.914 134.357L570.771 135.841L570.859 135.79C570.71 135.173 570.74 134.624 570.95 134.144C571.157 133.66 571.499 133.28 571.975 133.005C572.093 132.937 572.225 132.871 572.37 132.807C572.515 132.743 572.647 132.694 572.765 132.66L573.973 134.752C573.843 134.783 573.673 134.842 573.462 134.929C573.252 135.016 573.065 135.107 572.903 135.2C572.556 135.401 572.29 135.655 572.104 135.964C571.92 136.267 571.825 136.598 571.82 136.955C571.818 137.31 571.918 137.661 572.118 138.008L574.895 142.819L572.537 144.18Z" fill="var(--fill-0, #1C2C65)"/>
<path d="M563.444 149.431L556.899 138.094L564.405 133.76L565.546 135.736L560.436 138.686L561.996 141.387L566.607 138.725L567.748 140.701L563.137 143.364L565.841 148.047L563.444 149.431Z" fill="var(--fill-0, #1C2C65)"/>
<path d="M232.644 179.133L232.283 181.146L226.463 180.101L226.825 178.088L232.644 179.133ZM228.562 176.01L231.242 176.491L229.624 185.5C229.579 185.748 229.583 185.947 229.633 186.099C229.685 186.247 229.773 186.36 229.897 186.439C230.026 186.518 230.18 186.574 230.36 186.607C230.486 186.629 230.614 186.641 230.744 186.643C230.874 186.64 230.974 186.639 231.043 186.638L231.107 188.708C230.965 188.726 230.767 188.741 230.514 188.751C230.261 188.766 229.958 188.749 229.608 188.699C228.958 188.608 228.407 188.421 227.956 188.136C227.509 187.852 227.188 187.479 226.994 187.015C226.801 186.552 226.763 186.004 226.881 185.371L228.562 176.01Z" fill="var(--fill-0, #1C2C65)"/>
<path d="M219.526 186.947C218.536 186.77 217.723 186.407 217.085 185.86C216.452 185.309 216.012 184.624 215.765 183.804C215.523 182.986 215.489 182.088 215.665 181.111C215.842 180.121 216.189 179.287 216.705 178.609C217.226 177.927 217.878 177.44 218.662 177.148C219.447 176.852 220.328 176.792 221.305 176.967C222.148 177.118 222.859 177.404 223.437 177.824C224.016 178.244 224.44 178.764 224.71 179.384C224.979 180.004 225.066 180.69 224.97 181.444L222.44 180.989C222.456 180.494 222.337 180.072 222.083 179.724C221.835 179.372 221.465 179.152 220.974 179.064C220.559 178.989 220.176 179.037 219.825 179.208C219.479 179.375 219.181 179.657 218.933 180.054C218.684 180.451 218.505 180.954 218.396 181.562C218.285 182.179 218.275 182.718 218.365 183.18C218.459 183.643 218.641 184.016 218.911 184.298C219.181 184.58 219.523 184.758 219.938 184.833C220.245 184.888 220.531 184.874 220.796 184.792C221.067 184.711 221.303 184.565 221.505 184.354C221.712 184.141 221.872 183.868 221.983 183.538L224.512 183.992C224.338 184.722 224.019 185.336 223.558 185.834C223.101 186.327 222.53 186.675 221.844 186.877C221.159 187.078 220.386 187.102 219.526 186.947Z" fill="var(--fill-0, #1C2C65)"/>
<path d="M204.485 184.052L201.565 183.527L208.327 171.441L211.838 172.072L213.966 185.754L211.047 185.23L209.604 174.71L209.503 174.692L204.485 184.052ZM205.212 178.954L212.107 180.192L211.725 182.319L204.83 181.081L205.212 178.954Z" fill="var(--fill-0, #1C2C65)"/>
<path d="M488.796 172.291L489.252 174.285L483.489 175.604L483.032 173.61L488.796 172.291ZM483.816 171.018L486.47 170.41L488.513 179.333C488.569 179.578 488.65 179.76 488.756 179.88C488.862 179.996 488.987 180.066 489.132 180.089C489.282 180.112 489.446 180.103 489.624 180.062C489.749 180.033 489.871 179.994 489.991 179.945C490.11 179.892 490.201 179.851 490.265 179.823L491.134 181.703C491.011 181.775 490.835 181.866 490.606 181.975C490.379 182.088 490.094 182.19 489.752 182.282C489.118 182.453 488.538 182.496 488.011 182.412C487.489 182.326 487.048 182.108 486.688 181.757C486.328 181.407 486.078 180.917 485.938 180.289L483.816 171.018Z" fill="var(--fill-0, #1C2C65)"/>
<path d="M479.79 184.621C478.81 184.845 477.919 184.831 477.118 184.577C476.319 184.318 475.646 183.86 475.098 183.203C474.554 182.545 474.171 181.733 473.95 180.765C473.725 179.784 473.717 178.881 473.926 178.055C474.138 177.224 474.547 176.521 475.154 175.945C475.76 175.364 476.547 174.963 477.515 174.742C478.35 174.551 479.116 174.535 479.812 174.695C480.509 174.854 481.103 175.166 481.594 175.631C482.085 176.096 482.434 176.693 482.641 177.424L480.136 177.998C479.956 177.536 479.681 177.195 479.311 176.973C478.945 176.747 478.518 176.689 478.032 176.8C477.621 176.895 477.287 177.089 477.031 177.384C476.779 177.673 476.615 178.049 476.542 178.512C476.469 178.975 476.501 179.507 476.639 180.11C476.779 180.72 476.981 181.22 477.245 181.61C477.513 181.999 477.827 182.271 478.185 182.424C478.544 182.578 478.929 182.608 479.34 182.514C479.644 182.445 479.901 182.32 480.114 182.14C480.33 181.96 480.49 181.733 480.594 181.46C480.701 181.182 480.741 180.869 480.714 180.521L483.218 179.948C483.344 180.688 483.292 181.378 483.062 182.016C482.836 182.649 482.447 183.193 481.895 183.647C481.343 184.102 480.641 184.426 479.79 184.621Z" fill="var(--fill-0, #1C2C65)"/>
<path d="M464.817 187.853L461.926 188.515L463.41 174.745L466.887 173.949L474.207 185.703L471.316 186.365L465.866 177.252L465.766 177.275L464.817 187.853ZM463.488 182.878L470.317 181.315L470.799 183.421L463.97 184.984L463.488 182.878Z" fill="var(--fill-0, #1C2C65)"/>
<path d="M376.323 189.412V191.457H370.411V189.412H376.323ZM371.753 187.06H374.476V196.213C374.476 196.464 374.514 196.66 374.591 196.801C374.668 196.937 374.774 197.033 374.911 197.089C375.051 197.144 375.213 197.172 375.397 197.172C375.524 197.172 375.652 197.161 375.78 197.14C375.908 197.114 376.006 197.095 376.074 197.082L376.502 199.109C376.366 199.151 376.174 199.2 375.927 199.256C375.68 199.315 375.38 199.351 375.026 199.364C374.37 199.39 373.794 199.302 373.3 199.102C372.81 198.902 372.429 198.591 372.156 198.169C371.883 197.747 371.749 197.214 371.753 196.571V187.06Z" fill="var(--fill-0, #1C2C65)"/>
<path d="M364.792 199.422C363.787 199.422 362.922 199.209 362.197 198.783C361.477 198.352 360.923 197.756 360.535 196.993C360.152 196.23 359.96 195.352 359.96 194.359C359.96 193.354 360.154 192.472 360.542 191.713C360.934 190.95 361.49 190.356 362.21 189.93C362.93 189.499 363.787 189.284 364.78 189.284C365.636 189.284 366.386 189.44 367.03 189.751C367.673 190.062 368.182 190.499 368.557 191.061C368.932 191.624 369.139 192.284 369.177 193.043H366.608C366.535 192.553 366.344 192.158 366.033 191.86C365.726 191.558 365.323 191.406 364.824 191.406C364.403 191.406 364.034 191.521 363.719 191.751C363.408 191.977 363.165 192.308 362.99 192.742C362.815 193.177 362.728 193.703 362.728 194.321C362.728 194.948 362.813 195.48 362.984 195.919C363.158 196.358 363.403 196.693 363.719 196.923C364.034 197.153 364.403 197.268 364.824 197.268C365.135 197.268 365.415 197.204 365.662 197.076C365.913 196.948 366.12 196.763 366.282 196.52C366.448 196.273 366.557 195.977 366.608 195.631H369.177C369.135 196.381 368.93 197.042 368.564 197.613C368.202 198.18 367.701 198.623 367.062 198.943C366.422 199.262 365.666 199.422 364.792 199.422Z" fill="var(--fill-0, #1C2C65)"/>
<path d="M353.893 199.422C352.883 199.422 352.014 199.217 351.285 198.808C350.56 198.395 350.002 197.811 349.61 197.057C349.218 196.298 349.022 195.401 349.022 194.366C349.022 193.356 349.218 192.47 349.61 191.707C350.002 190.944 350.554 190.349 351.266 189.923C351.982 189.497 352.821 189.284 353.784 189.284C354.432 189.284 355.035 189.389 355.593 189.597C356.156 189.802 356.646 190.111 357.063 190.524C357.485 190.938 357.813 191.457 358.048 192.084C358.282 192.706 358.399 193.435 358.399 194.27V195.018H350.109V193.33H355.836C355.836 192.938 355.751 192.591 355.58 192.288C355.41 191.986 355.173 191.749 354.871 191.579C354.573 191.404 354.225 191.317 353.829 191.317C353.416 191.317 353.049 191.413 352.729 191.604C352.414 191.792 352.167 192.046 351.988 192.365C351.809 192.68 351.717 193.032 351.713 193.42V195.024C351.713 195.51 351.803 195.93 351.982 196.283C352.165 196.637 352.423 196.91 352.755 197.102C353.087 197.293 353.482 197.389 353.938 197.389C354.24 197.389 354.517 197.347 354.769 197.261C355.02 197.176 355.235 197.048 355.414 196.878C355.593 196.707 355.729 196.499 355.823 196.251L358.342 196.418C358.214 197.023 357.952 197.551 357.555 198.003C357.163 198.45 356.656 198.8 356.034 199.051C355.416 199.298 354.702 199.422 353.893 199.422Z" fill="var(--fill-0, #1C2C65)"/>
<path d="M347.057 186.14V199.231H344.334V186.14H347.057Z" fill="var(--fill-0, #1C2C65)"/>
<path d="M342.491 189.413V191.458H336.431V189.413H342.491ZM337.818 199.231V188.703C337.818 187.992 337.957 187.401 338.234 186.933C338.515 186.464 338.899 186.112 339.384 185.878C339.87 185.644 340.422 185.526 341.04 185.526C341.458 185.526 341.839 185.558 342.184 185.622C342.534 185.686 342.793 185.744 342.964 185.795L342.478 187.84C342.372 187.806 342.24 187.774 342.082 187.744C341.928 187.715 341.771 187.7 341.609 187.7C341.208 187.7 340.929 187.793 340.771 187.981C340.614 188.164 340.535 188.422 340.535 188.754V199.231H337.818Z" fill="var(--fill-0, #1C2C65)"/>
<path d="M330.748 199.422C329.738 199.422 328.869 199.217 328.14 198.808C327.415 198.395 326.857 197.811 326.465 197.057C326.073 196.298 325.877 195.401 325.877 194.366C325.877 193.356 326.073 192.47 326.465 191.707C326.857 190.944 327.409 190.349 328.121 189.923C328.837 189.497 329.676 189.284 330.639 189.284C331.287 189.284 331.89 189.389 332.448 189.597C333.011 189.802 333.501 190.111 333.918 190.524C334.34 190.938 334.668 191.457 334.903 192.084C335.137 192.706 335.254 193.435 335.254 194.27V195.018H326.964V193.33H332.691C332.691 192.938 332.606 192.591 332.435 192.288C332.265 191.986 332.028 191.749 331.726 191.579C331.427 191.404 331.08 191.317 330.684 191.317C330.271 191.317 329.904 191.413 329.584 191.604C329.269 191.792 329.022 192.046 328.843 192.365C328.664 192.68 328.572 193.032 328.568 193.42V195.024C328.568 195.51 328.658 195.93 328.837 196.283C329.02 196.637 329.278 196.91 329.61 197.102C329.942 197.293 330.337 197.389 330.793 197.389C331.095 197.389 331.372 197.347 331.624 197.261C331.875 197.176 332.09 197.048 332.269 196.878C332.448 196.707 332.584 196.499 332.678 196.251L335.197 196.418C335.069 197.023 334.807 197.551 334.41 198.003C334.018 198.45 333.511 198.8 332.889 199.051C332.271 199.298 331.557 199.422 330.748 199.422Z" fill="var(--fill-0, #1C2C65)"/>
<path d="M314.49 199.231V186.14H319.655C320.643 186.14 321.487 186.316 322.186 186.67C322.889 187.02 323.424 187.516 323.79 188.16C324.161 188.799 324.346 189.551 324.346 190.416C324.346 191.285 324.159 192.033 323.784 192.66C323.409 193.282 322.866 193.759 322.154 194.091C321.447 194.424 320.59 194.59 319.584 194.59H316.126V192.365H319.137C319.665 192.365 320.104 192.293 320.454 192.148C320.803 192.003 321.063 191.786 321.233 191.496C321.408 191.206 321.496 190.846 321.496 190.416C321.496 189.981 321.408 189.615 321.233 189.316C321.063 189.018 320.801 188.792 320.447 188.639C320.098 188.481 319.657 188.402 319.124 188.402H317.258V199.231H314.49ZM321.559 193.273L324.813 199.231H321.758L318.574 193.273H321.559Z" fill="var(--fill-0, #1C2C65)"/>
</g>
</g>
</svg>
