<svg preserveAspectRatio="none" width="100%" height="100%" overflow="visible" style="display: block;" viewBox="0 0 687.466 214.737" fill="none" xmlns="http://www.w3.org/2000/svg">
<g id="Vector">
<path d="M60.9878 52.1073L42.4393 16.6678C36.677 5.65822 23.0807 1.4044 12.0711 7.16668C1.06145 12.929 -3.19237 26.5253 2.56991 37.5349L21.1184 72.9743C26.8807 83.9839 40.477 88.2378 51.4866 82.4755C62.4962 76.7132 66.75 63.1169 60.9878 52.1073Z" fill="#E8F4FC"/>
<path d="M18.0224 32.5553L29.6207 26.4849L33.64 34.1643L31.6182 35.2225L28.8824 29.9953L26.1187 31.4418L28.5878 36.1593L26.566 37.2174L24.0969 32.4999L19.3058 35.0075L18.0224 32.5553ZM24.5354 45.413C24.0671 44.5182 23.8452 43.6532 23.8698 42.8178C23.9001 41.9843 24.1584 41.219 24.6449 40.5219C25.1351 39.8228 25.839 39.2332 26.7564 38.753C27.6512 38.2847 28.5274 38.0474 29.3851 38.041C30.2427 38.0346 31.0252 38.2479 31.7328 38.6808C32.4423 39.1175 33.0204 39.7625 33.467 40.6157C33.7673 41.1896 33.9544 41.7722 34.0283 42.3637C34.1079 42.9569 34.0614 43.5343 33.8889 44.096C33.7183 44.6615 33.4098 45.1932 32.9635 45.6914C32.521 46.1875 31.9297 46.6293 31.1897 47.0166L30.5271 47.3634L26.6827 40.0181L28.1778 39.2356L30.8336 44.3099C31.1809 44.1281 31.4491 43.8915 31.6381 43.6002C31.8272 43.3089 31.927 42.9897 31.9377 42.6426C31.9542 42.2973 31.8706 41.9491 31.6868 41.5979C31.4951 41.2317 31.2402 40.9515 30.9221 40.7572C30.6098 40.5648 30.2705 40.4634 29.9044 40.453C29.542 40.4407 29.188 40.5225 28.8425 40.6986L27.421 41.4426C26.9906 41.6678 26.6602 41.9417 26.4298 42.2643C26.2014 42.5907 26.0793 42.9456 26.0636 43.329C26.0478 43.7124 26.1457 44.1061 26.3571 44.5101C26.4974 44.7781 26.6636 45.0038 26.8557 45.187C27.0478 45.3702 27.2608 45.5016 27.4948 45.5812C27.7289 45.6607 27.9771 45.6847 28.2395 45.6531L29.2601 47.9615C28.6647 48.1289 28.0751 48.1417 27.4911 48C26.9129 47.8602 26.3681 47.5729 25.8569 47.1383C25.3513 46.7054 24.9109 46.1303 24.5354 45.413ZM29.6074 55.1038C29.1391 54.209 28.9172 53.3439 28.9418 52.5086C28.972 51.6751 29.2304 50.9098 29.7169 50.2127C30.2071 49.5136 30.911 48.9239 31.8284 48.4438C32.7232 47.9754 33.5994 47.7381 34.4571 47.7317C35.3147 47.7254 36.0972 47.9386 36.8048 48.3715C37.5143 48.8082 38.0924 49.4532 38.539 50.3065C38.8393 50.8803 39.0264 51.463 39.1003 52.0544C39.1799 52.6476 39.1334 53.2251 38.9609 53.7867C38.7903 54.3522 38.4818 54.884 38.0355 55.3821C37.5929 55.8783 37.0017 56.32 36.2617 56.7073L35.5991 57.0541L31.7547 49.7089L33.2498 48.9263L35.9056 54.0006C36.2529 53.8188 36.5211 53.5823 36.7101 53.291C36.8992 52.9996 36.999 52.6804 37.0097 52.3333C37.0262 51.988 36.9426 51.6398 36.7588 51.2887C36.5671 50.9225 36.3122 50.6422 35.9941 50.448C35.6818 50.2555 35.3425 50.1541 34.9764 50.1438C34.614 50.1314 34.26 50.2133 33.9145 50.3893L32.493 51.1333C32.0626 51.3586 31.7322 51.6325 31.5018 51.9551C31.2734 52.2814 31.1513 52.6363 31.1356 53.0197C31.1198 53.4031 31.2176 53.7968 31.4291 54.2008C31.5694 54.4689 31.7356 54.6945 31.9277 54.8778C32.1198 55.061 32.3328 55.1924 32.5668 55.2719C32.8009 55.3514 33.0491 55.3754 33.3115 55.3439L34.3321 57.6523C33.7367 57.8196 33.147 57.8324 32.5631 57.6908C31.9848 57.5509 31.4401 57.2637 30.9288 56.829C30.4233 56.3962 29.9829 55.8211 29.6074 55.1038ZM45.6355 57.0834L34.0372 63.1538L32.7745 60.7413L44.3728 54.6709L45.6355 57.0834Z" fill="var(--fill-0, #1C2C65)"/>
<path d="M643.228 16.6822L632.875 55.3192C629.659 67.3222 636.782 79.6598 648.785 82.8759C660.788 86.0921 673.125 78.969 676.341 66.966L686.694 28.329C689.91 16.326 682.787 3.98844 670.784 0.772253C658.781 -2.44394 646.444 4.67917 643.228 16.6822Z" fill="#E8F4FC"/>
<path d="M661.599 60.1656L648.954 56.7774L651.197 48.4051L653.401 48.9957L651.874 54.6945L654.887 55.5019L656.265 50.3587L658.47 50.9494L657.092 56.0925L662.315 57.4921L661.599 60.1656ZM665.514 46.2944C665.253 47.2699 664.83 48.0567 664.246 48.6546C663.659 49.2474 662.951 49.6355 662.121 49.819C661.287 50.0014 660.37 49.9585 659.369 49.6905C658.394 49.4291 657.589 49.0104 656.953 48.4343C656.318 47.8582 655.886 47.1713 655.659 46.3736C655.433 45.5718 655.444 44.7057 655.693 43.7755C655.861 43.1498 656.118 42.5944 656.464 42.1092C656.807 41.6188 657.233 41.2254 657.74 40.929C658.248 40.6285 658.836 40.4461 659.501 40.3819C660.163 40.3165 660.897 40.3919 661.704 40.6081L662.426 40.8017L660.28 48.8096L658.65 48.3729L660.133 42.8408C659.754 42.7393 659.397 42.7317 659.06 42.8181C658.724 42.9044 658.434 43.0717 658.191 43.3198C657.945 43.5627 657.771 43.8756 657.668 44.2584C657.561 44.6576 657.559 45.0364 657.662 45.3948C657.761 45.7479 657.942 46.0523 658.205 46.3079C658.463 46.5623 658.779 46.7418 659.152 46.8463L660.702 47.2616C661.171 47.3873 661.6 47.4095 661.988 47.3282C662.377 47.2427 662.707 47.0643 662.978 46.7928C663.249 46.5214 663.444 46.1655 663.562 45.7251C663.64 45.4328 663.671 45.1542 663.654 44.8893C663.636 44.6244 663.569 44.3835 663.45 44.1665C663.332 43.9495 663.166 43.7637 662.951 43.6092L663.763 41.2195C664.315 41.4996 664.757 41.8895 665.091 42.3893C665.422 42.8837 665.628 43.464 665.71 44.13C665.789 44.7909 665.723 45.5123 665.514 46.2944ZM668.345 35.7293C668.083 36.7048 667.661 37.4915 667.077 38.0895C666.49 38.6823 665.782 39.0704 664.952 39.2539C664.118 39.4362 663.201 39.3934 662.2 39.1254C661.225 38.864 660.419 38.4453 659.784 37.8692C659.149 37.293 658.717 36.6061 658.49 35.8085C658.264 35.0066 658.275 34.1406 658.524 33.2104C658.692 32.5847 658.949 32.0293 659.295 31.5441C659.638 31.0537 660.064 30.6603 660.571 30.3639C661.079 30.0634 661.666 29.881 662.332 29.8168C662.994 29.7514 663.728 29.8268 664.535 30.043L665.257 30.2365L663.111 38.2445L661.481 37.8078L662.964 32.2757C662.585 32.1742 662.228 32.1666 661.891 32.253C661.555 32.3393 661.265 32.5065 661.022 32.7547C660.776 32.9976 660.602 33.3104 660.499 33.6932C660.392 34.0925 660.39 34.4713 660.493 34.8297C660.592 35.1828 660.773 35.4871 661.035 35.7427C661.294 35.9972 661.61 36.1767 661.983 36.2812L663.533 36.6965C664.002 36.8222 664.431 36.8444 664.819 36.763C665.208 36.6776 665.538 36.4992 665.809 36.2277C666.08 35.9563 666.275 35.6004 666.393 35.1599C666.471 34.8677 666.502 34.5891 666.485 34.3242C666.467 34.0593 666.4 33.8183 666.281 33.6013C666.163 33.3843 665.997 33.1986 665.782 33.0441L666.594 30.6544C667.146 30.9345 667.588 31.3244 667.922 31.8241C668.253 32.3186 668.459 32.8989 668.541 33.5649C668.62 34.2257 668.554 34.9472 668.345 35.7293ZM657.892 23.4181L670.537 26.8062L669.832 29.4365L657.188 26.0483L657.892 23.4181Z" fill="var(--fill-0, #1C2C65)"/>
<path d="M150.466 131.932L100.862 99.9883C90.4141 93.2604 76.4906 96.2758 69.7628 106.723C63.0349 117.171 66.0503 131.094 76.4979 137.822L126.102 169.766C136.55 176.494 150.473 173.478 157.201 163.031C163.929 152.583 160.914 138.66 150.466 131.932Z" fill="#E8F4FC"/>
<path d="M87.4656 125.854L94.5534 114.848L101.84 119.541L100.605 121.46L95.6444 118.265L93.9554 120.888L98.4324 123.771L97.1973 125.689L92.7204 122.806L89.7925 127.353L87.4656 125.854ZM96.2934 131.539L101.609 123.285L103.828 124.714L102.901 126.154L102.987 126.21C103.467 125.794 103.969 125.57 104.492 125.537C105.018 125.5 105.511 125.63 105.974 125.928C106.088 126.002 106.207 126.089 106.33 126.188C106.454 126.288 106.558 126.383 106.642 126.472L105.334 128.504C105.247 128.402 105.117 128.278 104.943 128.131C104.769 127.983 104.603 127.859 104.446 127.757C104.109 127.54 103.761 127.42 103.401 127.396C103.047 127.371 102.71 127.438 102.39 127.597C102.073 127.758 101.807 128.007 101.59 128.343L98.5824 133.014L96.2934 131.539ZM104.654 137.144C104.127 136.805 103.717 136.411 103.422 135.963C103.13 135.511 102.981 135.027 102.974 134.511C102.973 133.993 103.147 133.462 103.498 132.917C103.793 132.459 104.126 132.128 104.495 131.925C104.864 131.721 105.255 131.618 105.667 131.615C106.08 131.612 106.501 131.681 106.933 131.822C107.368 131.965 107.802 132.149 108.236 132.372C108.748 132.631 109.165 132.834 109.487 132.98C109.81 133.123 110.067 133.192 110.258 133.188C110.448 133.184 110.6 133.094 110.713 132.918L110.733 132.886C110.953 132.545 111.015 132.213 110.92 131.888C110.828 131.566 110.587 131.279 110.197 131.027C109.785 130.762 109.398 130.642 109.037 130.668C108.678 130.69 108.371 130.812 108.117 131.034L106.11 129.498C106.541 129.066 107.031 128.768 107.582 128.606C108.135 128.44 108.724 128.419 109.349 128.543C109.98 128.665 110.625 128.938 111.284 129.363C111.742 129.658 112.147 129.995 112.497 130.372C112.85 130.752 113.117 131.159 113.298 131.595C113.482 132.033 113.555 132.491 113.517 132.968C113.48 133.441 113.304 133.923 112.988 134.414L109.403 139.981L107.232 138.583L107.969 137.439L107.904 137.397C107.606 137.57 107.282 137.683 106.933 137.737C106.586 137.787 106.221 137.768 105.838 137.678C105.457 137.585 105.062 137.407 104.654 137.144ZM106.327 135.986C106.664 136.203 107.004 136.328 107.347 136.362C107.693 136.392 108.013 136.339 108.307 136.205C108.602 136.07 108.843 135.857 109.03 135.567L109.594 134.691C109.492 134.692 109.366 134.671 109.215 134.63C109.07 134.587 108.91 134.532 108.735 134.465C108.563 134.395 108.392 134.323 108.221 134.248C108.053 134.171 107.901 134.1 107.764 134.038C107.47 133.904 107.195 133.816 106.939 133.772C106.683 133.729 106.452 133.745 106.246 133.821C106.043 133.892 105.872 134.036 105.734 134.251C105.533 134.562 105.492 134.873 105.612 135.184C105.738 135.492 105.976 135.76 106.327 135.986ZM111.33 141.223L116.646 132.968L118.828 134.373L117.89 135.829L117.987 135.892C118.47 135.519 119.003 135.322 119.584 135.301C120.165 135.28 120.735 135.449 121.294 135.809C121.86 136.174 122.251 136.625 122.466 137.165C122.684 137.7 122.705 138.251 122.528 138.816L122.614 138.871C123.087 138.507 123.635 138.325 124.258 138.326C124.887 138.325 125.504 138.52 126.109 138.91C126.88 139.406 127.347 140.054 127.511 140.854C127.681 141.653 127.477 142.5 126.9 143.396L123.325 148.947L121.041 147.476L124.326 142.376C124.621 141.918 124.721 141.495 124.625 141.109C124.529 140.723 124.298 140.412 123.933 140.177C123.517 139.909 123.107 139.833 122.704 139.948C122.302 140.06 121.963 140.33 121.687 140.76L118.44 145.801L116.221 144.372L119.536 139.224C119.797 138.819 119.888 138.421 119.81 138.031C119.735 137.644 119.51 137.329 119.133 137.086C118.879 136.923 118.608 136.839 118.321 136.837C118.04 136.833 117.766 136.908 117.5 137.061C117.236 137.21 117.007 137.437 116.811 137.742L113.62 142.697L111.33 141.223ZM128.943 152.793C128.094 152.246 127.474 151.603 127.083 150.865C126.698 150.125 126.544 149.332 126.623 148.486C126.704 147.636 127.025 146.775 127.586 145.905C128.132 145.056 128.777 144.417 129.52 143.988C130.262 143.559 131.048 143.358 131.877 143.385C132.71 143.414 133.531 143.689 134.341 144.211C134.885 144.561 135.336 144.976 135.692 145.453C136.054 145.93 136.299 146.455 136.426 147.029C136.557 147.605 136.551 148.219 136.409 148.873C136.27 149.523 135.974 150.199 135.521 150.901L135.116 151.53L128.146 147.041L129.06 145.623L133.875 148.723C134.087 148.394 134.204 148.056 134.224 147.709C134.245 147.362 134.174 147.035 134.012 146.728C133.856 146.42 133.611 146.158 133.278 145.944C132.93 145.72 132.57 145.602 132.198 145.59C131.831 145.577 131.486 145.657 131.162 145.829C130.841 145.997 130.574 146.243 130.36 146.566L129.492 147.915C129.229 148.324 129.077 148.725 129.036 149.119C128.998 149.516 129.067 149.885 129.243 150.226C129.419 150.567 129.698 150.861 130.081 151.108C130.336 151.272 130.592 151.386 130.849 151.451C131.107 151.515 131.357 151.524 131.6 151.478C131.842 151.431 132.07 151.329 132.283 151.172L134.31 152.676C133.875 153.115 133.369 153.418 132.791 153.583C132.219 153.747 131.603 153.766 130.944 153.641C130.291 153.514 129.624 153.231 128.943 152.793Z" fill="var(--fill-0, #1C2C65)"/>
<path d="M603.34 98.6448L552.245 128.145C541.483 134.358 537.796 148.119 544.009 158.88C550.223 169.642 563.983 173.329 574.745 167.116L625.84 137.616C636.602 131.403 640.289 117.642 634.076 106.88C627.863 96.1188 614.102 92.4316 603.34 98.6448Z" fill="#E8F4FC"/>
<path d="M569.119 151.889L562.574 140.552L570.08 136.218L571.221 138.194L566.112 141.144L567.671 143.846L572.283 141.183L573.424 143.16L568.812 145.822L571.516 150.505L569.119 151.889ZM578.212 146.639L573.303 138.136L575.59 136.816L576.446 138.3L576.535 138.249C576.385 137.631 576.415 137.083 576.625 136.602C576.833 136.118 577.174 135.739 577.651 135.464C577.769 135.396 577.9 135.33 578.045 135.266C578.19 135.201 578.322 135.153 578.44 135.119L579.648 137.211C579.518 137.242 579.348 137.301 579.138 137.388C578.927 137.475 578.741 137.565 578.578 137.659C578.232 137.859 577.965 138.114 577.779 138.423C577.595 138.726 577.501 139.056 577.495 139.414C577.494 139.769 577.593 140.12 577.793 140.467L580.571 145.277L578.212 146.639ZM587.021 141.768C586.478 142.081 585.94 142.266 585.407 142.323C584.872 142.376 584.373 142.287 583.911 142.057C583.45 141.822 583.057 141.423 582.734 140.862C582.461 140.39 582.319 139.943 582.307 139.522C582.295 139.101 582.382 138.706 582.568 138.338C582.754 137.97 583.008 137.626 583.331 137.307C583.657 136.986 584.019 136.683 584.416 136.4C584.881 136.063 585.252 135.785 585.529 135.566C585.804 135.343 585.983 135.146 586.066 134.975C586.149 134.804 586.139 134.628 586.034 134.447L586.015 134.414C585.813 134.063 585.545 133.856 585.213 133.792C584.885 133.726 584.519 133.809 584.117 134.041C583.692 134.286 583.409 134.575 583.267 134.908C583.122 135.237 583.091 135.566 583.171 135.893L580.888 136.975C580.7 136.395 580.66 135.822 580.768 135.258C580.873 134.691 581.124 134.157 581.519 133.658C581.917 133.153 582.455 132.705 583.134 132.313C583.606 132.04 584.09 131.834 584.586 131.696C585.085 131.555 585.57 131.504 586.04 131.543C586.514 131.579 586.954 131.724 587.361 131.976C587.765 132.225 588.113 132.602 588.405 133.108L591.716 138.843L589.48 140.134L588.799 138.955L588.733 138.993C588.75 139.338 588.702 139.677 588.591 140.012C588.477 140.344 588.292 140.659 588.037 140.959C587.78 141.255 587.441 141.525 587.021 141.768ZM586.756 139.75C587.103 139.55 587.37 139.305 587.557 139.015C587.742 138.721 587.842 138.413 587.857 138.089C587.871 137.766 587.793 137.454 587.62 137.155L587.099 136.253C587.053 136.344 586.977 136.447 586.871 136.562C586.767 136.671 586.645 136.788 586.506 136.913C586.364 137.034 586.221 137.153 586.078 137.271C585.932 137.385 585.8 137.488 585.681 137.581C585.428 137.781 585.223 137.986 585.068 138.193C584.912 138.401 584.821 138.614 584.794 138.831C584.765 139.045 584.814 139.263 584.942 139.484C585.127 139.805 585.385 139.983 585.716 140.019C586.048 140.049 586.395 139.959 586.756 139.75ZM593.702 137.696L588.793 129.193L591.04 127.896L591.906 129.396L592.006 129.338C591.895 128.738 591.964 128.175 592.211 127.648C592.458 127.122 592.869 126.692 593.445 126.36C594.028 126.023 594.609 125.882 595.187 125.937C595.762 125.989 596.261 126.222 596.683 126.638L596.772 126.587C596.664 125.999 596.753 125.429 597.039 124.875C597.326 124.316 597.781 123.856 598.405 123.496C599.198 123.038 599.988 122.919 600.775 123.139C601.563 123.353 602.223 123.922 602.756 124.844L606.057 130.563L603.705 131.921L600.672 126.668C600.399 126.195 600.069 125.913 599.682 125.822C599.294 125.731 598.912 125.794 598.536 126.011C598.108 126.258 597.853 126.588 597.77 126.999C597.686 127.407 597.772 127.833 598.028 128.275L601.025 133.468L598.739 134.788L595.677 129.485C595.437 129.068 595.125 128.805 594.742 128.696C594.363 128.585 593.98 128.642 593.593 128.865C593.331 129.017 593.133 129.219 592.999 129.474C592.867 129.722 592.808 130 592.823 130.306C592.835 130.609 592.932 130.917 593.113 131.231L596.06 136.335L593.702 137.696ZM612.047 127.326C611.172 127.831 610.317 128.089 609.481 128.099C608.647 128.103 607.872 127.876 607.155 127.419C606.437 126.958 605.818 126.28 605.301 125.383C604.796 124.508 604.522 123.642 604.48 122.786C604.438 121.929 604.619 121.139 605.022 120.414C605.429 119.687 606.05 119.082 606.884 118.601C607.445 118.277 608.019 118.066 608.607 117.968C609.196 117.864 609.775 117.886 610.344 118.035C610.916 118.182 611.46 118.468 611.976 118.894C612.49 119.315 612.956 119.888 613.373 120.611L613.747 121.259L606.568 125.404L605.724 123.943L610.684 121.079C610.488 120.739 610.24 120.481 609.941 120.305C609.643 120.128 609.319 120.041 608.972 120.045C608.627 120.043 608.282 120.141 607.939 120.339C607.581 120.546 607.311 120.812 607.131 121.138C606.951 121.458 606.864 121.801 606.869 122.167C606.871 122.53 606.968 122.88 607.158 123.218L607.96 124.607C608.203 125.028 608.491 125.347 608.822 125.564C609.158 125.778 609.518 125.886 609.901 125.886C610.285 125.885 610.674 125.771 611.069 125.543C611.331 125.392 611.55 125.217 611.725 125.017C611.9 124.818 612.022 124.599 612.092 124.362C612.162 124.125 612.176 123.876 612.133 123.615L614.397 122.5C614.589 123.088 614.627 123.677 614.509 124.266C614.393 124.849 614.129 125.406 613.716 125.934C613.304 126.457 612.748 126.921 612.047 127.326Z" fill="var(--fill-0, #1C2C65)"/>
<path d="M245.7 161.719L212.235 155.709C200.004 153.513 188.309 161.648 186.113 173.879C183.916 186.109 192.051 197.805 204.282 200.001L237.747 206.01C249.977 208.206 261.673 200.072 263.869 187.841C266.065 175.61 257.931 163.915 245.7 161.719Z" fill="#E8F4FC"/>
<path d="M211.962 185.125L209.043 184.601L215.805 172.515L219.315 173.145L221.444 186.828L218.524 186.303L217.082 175.784L216.981 175.765L211.962 185.125ZM212.689 180.028L219.585 181.266L219.203 183.393L212.307 182.154L212.689 180.028ZM227.004 188.021C226.014 187.843 225.2 187.481 224.562 186.933C223.93 186.382 223.49 185.697 223.243 184.878C223 184.059 222.967 183.161 223.142 182.184C223.32 181.194 223.667 180.36 224.182 179.682C224.703 179.001 225.355 178.514 226.14 178.222C226.924 177.925 227.806 177.865 228.783 178.04C229.626 178.192 230.337 178.478 230.915 178.897C231.493 179.317 231.917 179.837 232.187 180.457C232.457 181.077 232.543 181.764 232.447 182.517L229.918 182.063C229.933 181.568 229.814 181.146 229.561 180.797C229.312 180.445 228.943 180.225 228.452 180.137C228.037 180.063 227.653 180.111 227.302 180.281C226.956 180.449 226.659 180.731 226.41 181.128C226.161 181.525 225.982 182.027 225.873 182.635C225.762 183.252 225.752 183.791 225.842 184.254C225.937 184.716 226.119 185.089 226.388 185.371C226.658 185.653 227.001 185.832 227.416 185.906C227.722 185.961 228.008 185.948 228.274 185.866C228.544 185.784 228.78 185.638 228.982 185.428C229.19 185.214 229.349 184.942 229.46 184.611L231.99 185.065C231.815 185.796 231.497 186.41 231.035 186.907C230.579 187.401 230.008 187.749 229.322 187.95C228.636 188.152 227.864 188.175 227.004 188.021ZM240.122 180.206L239.76 182.22L233.941 181.175L234.302 179.162L240.122 180.206ZM236.039 177.084L238.72 177.565L237.102 186.574C237.057 186.822 237.06 187.021 237.111 187.173C237.162 187.321 237.25 187.434 237.375 187.513C237.503 187.592 237.658 187.648 237.838 187.68C237.964 187.703 238.092 187.715 238.221 187.717C238.352 187.714 238.452 187.713 238.521 187.712L238.584 189.782C238.443 189.8 238.245 189.814 237.992 189.825C237.738 189.84 237.436 189.823 237.086 189.773C236.435 189.682 235.885 189.494 235.433 189.21C234.987 188.926 234.666 188.553 234.472 188.089C234.278 187.626 234.24 187.078 234.358 186.445L236.039 177.084Z" fill="var(--fill-0, #1C2C65)"/>
<path d="M491.546 154.137L458.404 161.725C446.291 164.498 438.719 176.565 441.493 188.678C444.266 200.791 456.333 208.363 468.446 205.59L501.589 198.002C513.702 195.229 521.273 183.161 518.5 171.048C515.727 158.935 503.66 151.364 491.546 154.137Z" fill="#E8F4FC"/>
<path d="M469.681 188.893L466.79 189.555L468.274 175.786L471.751 174.99L479.071 186.744L476.18 187.406L470.73 178.293L470.63 178.315L469.681 188.893ZM468.352 183.919L475.181 182.356L475.663 184.462L468.834 186.025L468.352 183.919ZM484.654 185.662C483.674 185.887 482.783 185.872 481.982 185.618C481.184 185.36 480.511 184.902 479.962 184.245C479.418 183.587 479.035 182.774 478.814 181.806C478.589 180.826 478.582 179.922 478.79 179.096C479.002 178.265 479.412 177.562 480.019 176.986C480.625 176.405 481.411 176.005 482.379 175.783C483.214 175.592 483.98 175.576 484.677 175.736C485.373 175.895 485.967 176.208 486.458 176.672C486.949 177.137 487.298 177.734 487.505 178.465L485 179.039C484.82 178.577 484.545 178.236 484.175 178.014C483.809 177.788 483.383 177.73 482.897 177.842C482.485 177.936 482.152 178.13 481.896 178.425C481.643 178.714 481.48 179.091 481.406 179.553C481.333 180.016 481.365 180.548 481.503 181.151C481.643 181.761 481.845 182.262 482.109 182.651C482.377 183.04 482.691 183.312 483.05 183.466C483.408 183.62 483.793 183.649 484.205 183.555C484.508 183.486 484.766 183.361 484.978 183.182C485.195 183.001 485.355 182.774 485.458 182.501C485.565 182.223 485.605 181.91 485.578 181.562L488.083 180.989C488.208 181.729 488.156 182.419 487.927 183.057C487.7 183.691 487.311 184.234 486.759 184.689C486.207 185.143 485.506 185.467 484.654 185.662ZM493.66 173.332L494.117 175.325L488.353 176.645L487.897 174.651L493.66 173.332ZM488.68 172.059L491.335 171.451L493.377 180.373C493.433 180.618 493.515 180.801 493.621 180.921C493.726 181.037 493.851 181.106 493.996 181.13C494.146 181.153 494.31 181.144 494.488 181.103C494.613 181.074 494.735 181.035 494.855 180.986C494.974 180.932 495.065 180.892 495.129 180.864L495.999 182.744C495.875 182.816 495.699 182.906 495.471 183.015C495.243 183.129 494.958 183.231 494.616 183.323C493.982 183.494 493.402 183.537 492.876 183.452C492.353 183.366 491.912 183.148 491.552 182.798C491.192 182.447 490.942 181.958 490.803 181.33L488.68 172.059Z" fill="var(--fill-0, #1C2C65)"/>
<path d="M382.642 169.737H315.642C303.216 169.737 293.142 179.81 293.142 192.237C293.142 204.663 303.216 214.737 315.642 214.737H382.642C395.069 214.737 405.142 204.663 405.142 192.237C405.142 179.81 395.069 169.737 382.642 169.737Z" fill="#E8F4FC"/>
<path d="M318.45 198.737V185.646H323.615C324.604 185.646 325.447 185.823 326.146 186.177C326.849 186.526 327.384 187.023 327.751 187.666C328.121 188.305 328.307 189.058 328.307 189.923C328.307 190.792 328.119 191.54 327.744 192.166C327.369 192.788 326.826 193.266 326.114 193.598C325.407 193.93 324.55 194.097 323.545 194.097H320.087V191.872H323.097C323.626 191.872 324.065 191.8 324.414 191.655C324.764 191.51 325.023 191.293 325.194 191.003C325.369 190.713 325.456 190.353 325.456 189.923C325.456 189.488 325.369 189.121 325.194 188.823C325.023 188.525 324.761 188.299 324.408 188.146C324.058 187.988 323.617 187.909 323.085 187.909H321.218V198.737H318.45ZM325.52 192.78L328.773 198.737H325.718L322.535 192.78H325.52ZM334.708 198.929C333.698 198.929 332.829 198.724 332.1 198.315C331.376 197.902 330.817 197.318 330.425 196.564C330.033 195.805 329.837 194.908 329.837 193.873C329.837 192.863 330.033 191.977 330.425 191.214C330.817 190.451 331.369 189.857 332.081 189.43C332.797 189.004 333.636 188.791 334.599 188.791C335.247 188.791 335.85 188.896 336.408 189.104C336.971 189.309 337.461 189.618 337.878 190.031C338.3 190.445 338.628 190.965 338.863 191.591C339.097 192.213 339.214 192.942 339.214 193.777V194.525H330.924V192.837H336.651C336.651 192.445 336.566 192.098 336.395 191.796C336.225 191.493 335.988 191.256 335.686 191.086C335.388 190.911 335.04 190.824 334.644 190.824C334.231 190.824 333.864 190.92 333.545 191.112C333.229 191.299 332.982 191.553 332.803 191.872C332.624 192.188 332.532 192.539 332.528 192.927V194.531C332.528 195.017 332.618 195.437 332.797 195.791C332.98 196.144 333.238 196.417 333.57 196.609C333.903 196.8 334.297 196.896 334.753 196.896C335.055 196.896 335.332 196.854 335.584 196.769C335.835 196.683 336.05 196.555 336.229 196.385C336.408 196.215 336.545 196.006 336.638 195.759L339.157 195.925C339.029 196.53 338.767 197.058 338.371 197.51C337.979 197.957 337.471 198.307 336.849 198.558C336.231 198.805 335.518 198.929 334.708 198.929ZM346.451 188.919V190.965H340.391V188.919H346.451ZM341.779 198.737V188.21C341.779 187.498 341.917 186.908 342.194 186.439C342.475 185.97 342.859 185.619 343.345 185.384C343.83 185.15 344.382 185.033 345 185.033C345.418 185.033 345.799 185.065 346.144 185.129C346.494 185.193 346.754 185.25 346.924 185.301L346.438 187.347C346.332 187.313 346.2 187.281 346.042 187.251C345.889 187.221 345.731 187.206 345.569 187.206C345.168 187.206 344.889 187.3 344.732 187.487C344.574 187.671 344.495 187.928 344.495 188.261V198.737H341.779ZM351.018 185.646V198.737H348.295V185.646H351.018ZM357.853 198.929C356.843 198.929 355.974 198.724 355.245 198.315C354.521 197.902 353.963 197.318 353.571 196.564C353.179 195.805 352.983 194.908 352.983 193.873C352.983 192.863 353.179 191.977 353.571 191.214C353.963 190.451 354.515 189.857 355.226 189.43C355.942 189.004 356.782 188.791 357.745 188.791C358.392 188.791 358.995 188.896 359.554 189.104C360.116 189.309 360.606 189.618 361.024 190.031C361.446 190.445 361.774 190.965 362.008 191.591C362.243 192.213 362.36 192.942 362.36 193.777V194.525H354.069V192.837H359.797C359.797 192.445 359.711 192.098 359.541 191.796C359.37 191.493 359.134 191.256 358.831 191.086C358.533 190.911 358.186 190.824 357.789 190.824C357.376 190.824 357.01 190.92 356.69 191.112C356.375 191.299 356.128 191.553 355.949 191.872C355.77 192.188 355.678 192.539 355.674 192.927V194.531C355.674 195.017 355.763 195.437 355.942 195.791C356.125 196.144 356.383 196.417 356.716 196.609C357.048 196.8 357.442 196.896 357.898 196.896C358.201 196.896 358.478 196.854 358.729 196.769C358.981 196.683 359.196 196.555 359.375 196.385C359.554 196.215 359.69 196.006 359.784 195.759L362.302 195.925C362.174 196.53 361.912 197.058 361.516 197.51C361.124 197.957 360.617 198.307 359.995 198.558C359.377 198.805 358.663 198.929 357.853 198.929ZM368.753 198.929C367.747 198.929 366.882 198.716 366.158 198.29C365.438 197.859 364.884 197.263 364.496 196.5C364.112 195.737 363.92 194.859 363.92 193.867C363.92 192.861 364.114 191.979 364.502 191.22C364.894 190.457 365.45 189.863 366.17 189.437C366.891 189.006 367.747 188.791 368.74 188.791C369.597 188.791 370.347 188.947 370.99 189.258C371.634 189.569 372.143 190.006 372.518 190.568C372.893 191.131 373.099 191.791 373.138 192.55H370.568C370.496 192.06 370.304 191.666 369.993 191.367C369.686 191.065 369.283 190.913 368.785 190.913C368.363 190.913 367.994 191.028 367.679 191.259C367.368 191.484 367.125 191.815 366.95 192.249C366.776 192.684 366.688 193.21 366.688 193.828C366.688 194.455 366.773 194.987 366.944 195.426C367.119 195.865 367.364 196.2 367.679 196.43C367.994 196.66 368.363 196.775 368.785 196.775C369.096 196.775 369.375 196.711 369.622 196.583C369.874 196.455 370.08 196.27 370.242 196.027C370.408 195.78 370.517 195.484 370.568 195.139H373.138C373.095 195.889 372.891 196.549 372.524 197.12C372.162 197.687 371.661 198.13 371.022 198.45C370.383 198.769 369.626 198.929 368.753 198.929ZM380.284 188.919V190.965H374.371V188.919H380.284ZM375.713 186.567H378.436V195.72C378.436 195.972 378.475 196.168 378.551 196.308C378.628 196.445 378.735 196.541 378.871 196.596C379.012 196.651 379.173 196.679 379.357 196.679C379.485 196.679 379.612 196.668 379.74 196.647C379.868 196.621 379.966 196.602 380.034 196.59L380.462 198.616C380.326 198.658 380.134 198.707 379.887 198.763C379.64 198.822 379.34 198.859 378.986 198.871C378.33 198.897 377.754 198.81 377.26 198.609C376.77 198.409 376.389 198.098 376.116 197.676C375.843 197.254 375.709 196.722 375.713 196.078V186.567Z" fill="var(--fill-0, #1C2C65)"/>
</g>
</svg>
